G04 #@! TF.GenerationSoftware,KiCad,Pcbnew,(5.1.9)-1*
G04 #@! TF.CreationDate,2021-06-08T10:33:40+02:00*
G04 #@! TF.ProjectId,DynaQube,44796e61-5175-4626-952e-6b696361645f,v1.2*
G04 #@! TF.SameCoordinates,Original*
G04 #@! TF.FileFunction,Profile,NP*
%FSLAX46Y46*%
G04 Gerber Fmt 4.6, Leading zero omitted, Abs format (unit mm)*
G04 Created by KiCad (PCBNEW (5.1.9)-1) date 2021-06-08 10:33:40*
%MOMM*%
%LPD*%
G01*
G04 APERTURE LIST*
G04 #@! TA.AperFunction,Profile*
%ADD10C,0.200000*%
G04 #@! TD*
G04 APERTURE END LIST*
D10*
X117229558Y-126208661D02*
X117236711Y-140677664D01*
X117228459Y-126088387D02*
X117229558Y-126208661D01*
X106886186Y-96299789D02*
X116110796Y-96299789D01*
X107060796Y-124962086D02*
X116043276Y-124963387D01*
X117194552Y-125794982D02*
X117082465Y-125524381D01*
X117228459Y-126088387D02*
X117194552Y-125794982D01*
X116904161Y-125292009D02*
X116671790Y-125113705D01*
X117082465Y-125524381D02*
X116904161Y-125292009D01*
X116671790Y-125113705D02*
X116401188Y-125001618D01*
X116401188Y-125001618D02*
X116093186Y-124964886D01*
X117192633Y-95469666D02*
X117230796Y-95179789D01*
X116902756Y-95971748D02*
X117080745Y-95739789D01*
X116110796Y-96299789D02*
X116400674Y-96261625D01*
X117080745Y-95739789D02*
X117192633Y-95469666D01*
X116093186Y-124964886D02*
X116043276Y-124963387D01*
X116400674Y-96261625D02*
X116670796Y-96149737D01*
X116670796Y-96149737D02*
X116902756Y-95971748D01*
X105898596Y-97042689D02*
X105918296Y-96996886D01*
X106044396Y-96781886D02*
X106074826Y-96742286D01*
X105821756Y-97331489D02*
X105829516Y-97282188D01*
X105839316Y-97233188D02*
X105851146Y-97184688D01*
X105851146Y-97184688D02*
X105864986Y-97136787D01*
X105880816Y-97089389D02*
X105898596Y-97042689D01*
X105812036Y-97543288D02*
X105810866Y-97480788D01*
X106106876Y-96703986D02*
X106140486Y-96667087D01*
X106458237Y-96428088D02*
X106414406Y-96451987D01*
X106414406Y-96451987D02*
X106371606Y-96477687D01*
X105988607Y-96864688D02*
X106015646Y-96822688D01*
X106690176Y-96336887D02*
X106738556Y-96324588D01*
X105810866Y-97480788D02*
X105812416Y-97430888D01*
X106425266Y-124810788D02*
X106382206Y-124785489D01*
X105923516Y-124271088D02*
X105903336Y-124225388D01*
X105945587Y-124315888D02*
X105923516Y-124271088D01*
X106082686Y-124523987D02*
X106051846Y-124484688D01*
X105823496Y-123937386D02*
X105817286Y-123887887D01*
X105831776Y-123986687D02*
X105823496Y-123937386D01*
X106469346Y-124834187D02*
X106425266Y-124810788D01*
X106259826Y-124699288D02*
X106221536Y-124667187D01*
X106340226Y-124758488D02*
X106299406Y-124729687D01*
X106898606Y-124957989D02*
X106849006Y-124952286D01*
X106799686Y-124944588D02*
X106750726Y-124934788D01*
X106654246Y-124909089D02*
X106606896Y-124893288D01*
X106948406Y-124961686D02*
X106898606Y-124957989D01*
X106022667Y-124444188D02*
X105995206Y-124402489D01*
X106149136Y-124598489D02*
X106115136Y-124561887D01*
X106184616Y-124633588D02*
X106149136Y-124598489D01*
X106115136Y-124561887D02*
X106082686Y-124523987D01*
X106051846Y-124484688D02*
X106022667Y-124444188D01*
X105885076Y-124178887D02*
X105868756Y-124131688D01*
X105903336Y-124225388D02*
X105885076Y-124178887D01*
X105868756Y-124131688D02*
X105854426Y-124083886D01*
X105842086Y-124035489D02*
X105831776Y-123986687D01*
X105817286Y-123887887D02*
X105813136Y-123838189D01*
X106514366Y-124855786D02*
X106469346Y-124834187D01*
X106560237Y-124875489D02*
X106514366Y-124855786D01*
X106299406Y-124729687D02*
X106259826Y-124699288D01*
X106849006Y-124952286D02*
X106799686Y-124944588D01*
X106750726Y-124934788D02*
X106702226Y-124922887D01*
X106702226Y-124922887D02*
X106654246Y-124909089D01*
X106606896Y-124893288D02*
X106560237Y-124875489D01*
X107060796Y-124962086D02*
X106998316Y-124963189D01*
X106221536Y-124667187D02*
X106184616Y-124633588D01*
X105969496Y-124359688D02*
X105945587Y-124315888D01*
X105995206Y-124402489D02*
X105969496Y-124359688D01*
X105813136Y-123838189D02*
X105811056Y-123788289D01*
X106382206Y-124785489D02*
X106340226Y-124758488D01*
X105811056Y-123788289D02*
X105812096Y-123713288D01*
X105854426Y-124083886D02*
X105842086Y-124035489D01*
X106998316Y-124963189D02*
X106948406Y-124961686D01*
X105812096Y-123713288D02*
X105812036Y-97543288D01*
X105963346Y-96907786D02*
X105988607Y-96864688D01*
X106548696Y-96385787D02*
X106503026Y-96405986D01*
X106503026Y-96405986D02*
X106458237Y-96428088D01*
X106289396Y-96534389D02*
X106250126Y-96565189D01*
X106836646Y-96305987D02*
X106886186Y-96299789D01*
X106787406Y-96314288D02*
X106836646Y-96305987D01*
X105939896Y-96951888D02*
X105963346Y-96907786D01*
X106074826Y-96742286D02*
X106106876Y-96703986D01*
X106015646Y-96822688D02*
X106044396Y-96781886D01*
X105816056Y-97381087D02*
X105821756Y-97331489D01*
X105829516Y-97282188D02*
X105839316Y-97233188D01*
X105864986Y-97136787D02*
X105880816Y-97089389D01*
X105812416Y-97430888D02*
X105816056Y-97381087D01*
X106371606Y-96477687D02*
X106329906Y-96505187D01*
X106212176Y-96597587D02*
X106175616Y-96631587D01*
X106140486Y-96667087D02*
X106175616Y-96631587D01*
X106250126Y-96565189D02*
X106212176Y-96597587D01*
X106329906Y-96505187D02*
X106289396Y-96534389D01*
X106642346Y-96351287D02*
X106595167Y-96367587D01*
X106595167Y-96367587D02*
X106548696Y-96385787D01*
X106690176Y-96336887D02*
X106642346Y-96351287D01*
X106738556Y-96324588D02*
X106787406Y-96314288D01*
X105918296Y-96996886D02*
X105939896Y-96951888D01*
X112666682Y-48290603D02*
X112666540Y-51637093D01*
X27071969Y-48378597D02*
X27066712Y-82600796D01*
X42700000Y-47300000D02*
X28066712Y-47291264D01*
X62011613Y-141678459D02*
X61891339Y-141679558D01*
X29985152Y-102820796D02*
X29985452Y-84650799D01*
X117236711Y-69780898D02*
X117230796Y-95179789D01*
X61891339Y-141679558D02*
X28066747Y-141680738D01*
X84570211Y-141680796D02*
X116236711Y-141680535D01*
X112666540Y-51637093D02*
X112666066Y-67780797D01*
X28066712Y-103870796D02*
X28983730Y-103870796D01*
X29983730Y-102870796D02*
X29985152Y-102820796D01*
X29949656Y-103129615D02*
X29983730Y-102870796D01*
X29849755Y-103370796D02*
X29949656Y-103129615D01*
X29690836Y-103577903D02*
X29849755Y-103370796D01*
X29483730Y-103736822D02*
X29690836Y-103577903D01*
X29242549Y-103836722D02*
X29483730Y-103736822D01*
X28983730Y-103870796D02*
X29242549Y-103836722D01*
X28986565Y-83600797D02*
X28066710Y-83600797D01*
X27100786Y-104611977D02*
X27067023Y-104845896D01*
X27200687Y-104370796D02*
X27100786Y-104611977D01*
X27359606Y-104163690D02*
X27200687Y-104370796D01*
X27566712Y-104004771D02*
X27359606Y-104163690D01*
X27807893Y-103904871D02*
X27566712Y-104004771D01*
X28066712Y-103870796D02*
X27807893Y-103904871D01*
X29985452Y-84650799D02*
X29986418Y-84600945D01*
X29245379Y-83634910D02*
X28986565Y-83600797D01*
X29486545Y-83734846D02*
X29245379Y-83634910D01*
X29693629Y-83893795D02*
X29486545Y-83734846D01*
X29852517Y-84100925D02*
X29693629Y-83893795D01*
X29952382Y-84342120D02*
X29852517Y-84100925D01*
X29986418Y-84600945D02*
X29952382Y-84342120D01*
X27807891Y-83566723D02*
X28066710Y-83600797D01*
X27566711Y-83466822D02*
X27807891Y-83566723D01*
X27359604Y-83307903D02*
X27566711Y-83466822D01*
X27200686Y-83100796D02*
X27359604Y-83307903D01*
X27100786Y-82859615D02*
X27200686Y-83100796D01*
X27066712Y-82600796D02*
X27100786Y-82859615D01*
X27066972Y-140505756D02*
X27066712Y-140680772D01*
X27807927Y-141646672D02*
X28066747Y-141680738D01*
X27566742Y-141546780D02*
X27807927Y-141646672D01*
X27359630Y-141387869D02*
X27566742Y-141546780D01*
X27200704Y-141180768D02*
X27359630Y-141387869D01*
X27100795Y-140939590D02*
X27200704Y-141180768D01*
X27066712Y-140680772D02*
X27100795Y-140939590D01*
X111925529Y-47324655D02*
X111800000Y-47300000D01*
X112166707Y-47424563D02*
X111925529Y-47324655D01*
X112373809Y-47583488D02*
X112166707Y-47424563D01*
X112532722Y-47790599D02*
X112373809Y-47583488D01*
X112632615Y-48031783D02*
X112532722Y-47790599D01*
X112666682Y-48290603D02*
X112632615Y-48031783D01*
X113666066Y-68780854D02*
X116236711Y-68780898D01*
X113407240Y-68746771D02*
X113666066Y-68780854D01*
X113166055Y-68646861D02*
X113407240Y-68746771D01*
X112958947Y-68487932D02*
X113166055Y-68646861D01*
X112800030Y-68280815D02*
X112958947Y-68487932D01*
X112700133Y-68039625D02*
X112800030Y-68280815D01*
X112666066Y-67780797D02*
X112700133Y-68039625D01*
X116495530Y-68814972D02*
X116236711Y-68780898D01*
X116736711Y-68914872D02*
X116495530Y-68814972D01*
X116943818Y-69073791D02*
X116736711Y-68914872D01*
X117102737Y-69280898D02*
X116943818Y-69073791D01*
X117202637Y-69522079D02*
X117102737Y-69280898D01*
X117236711Y-69780898D02*
X117202637Y-69522079D01*
X117202637Y-140936483D02*
X117236711Y-140677664D01*
X117102737Y-141177664D02*
X117202637Y-140936483D01*
X116943818Y-141384771D02*
X117102737Y-141177664D01*
X116736711Y-141543689D02*
X116943818Y-141384771D01*
X116495530Y-141643590D02*
X116736711Y-141543689D01*
X116236711Y-141680535D02*
X116495530Y-141643590D01*
X99300000Y-47300224D02*
X111800000Y-47300000D01*
X98072638Y-49479616D02*
X98106712Y-49220797D01*
X97972738Y-49720797D02*
X98072638Y-49479616D01*
X97813819Y-49927904D02*
X97972738Y-49720797D01*
X97606712Y-50086823D02*
X97813819Y-49927904D01*
X97365531Y-50186723D02*
X97606712Y-50086823D01*
X97106712Y-50220797D02*
X97365531Y-50186723D01*
X97106712Y-50220797D02*
X96856712Y-50219600D01*
X98140786Y-48031979D02*
X98106712Y-48290798D01*
X98399606Y-47583692D02*
X98240687Y-47790798D01*
X98240687Y-47790798D02*
X98140786Y-48031979D01*
X98847893Y-47324873D02*
X98606712Y-47424773D01*
X99300000Y-47300224D02*
X98847893Y-47324873D01*
X98606712Y-47424773D02*
X98399606Y-47583692D01*
X98106712Y-48290798D02*
X98106712Y-49220797D01*
X27066712Y-48291264D02*
X27071969Y-48378597D01*
X27100786Y-48032445D02*
X27066712Y-48291264D01*
X27200687Y-47791264D02*
X27100786Y-48032445D01*
X27359606Y-47584157D02*
X27200687Y-47791264D01*
X27566712Y-47425238D02*
X27359606Y-47584157D01*
X27807893Y-47325338D02*
X27566712Y-47425238D01*
X28066712Y-47291264D02*
X27807893Y-47325338D01*
X44736712Y-50220797D02*
X44911711Y-50220501D01*
X44477893Y-50186723D02*
X44736712Y-50220797D01*
X44236712Y-50086823D02*
X44477893Y-50186723D01*
X44029606Y-49927904D02*
X44236712Y-50086823D01*
X43870687Y-49720797D02*
X44029606Y-49927904D01*
X43770786Y-49479616D02*
X43870687Y-49720797D01*
X43736712Y-49220797D02*
X43770786Y-49479616D01*
X43747590Y-48301860D02*
X43736712Y-49220797D01*
X42998347Y-47325427D02*
X42700000Y-47300000D01*
X43242151Y-47426415D02*
X42998347Y-47325427D01*
X43451511Y-47587062D02*
X43242151Y-47426415D01*
X43612158Y-47796421D02*
X43451511Y-47587062D01*
X43713145Y-48040226D02*
X43612158Y-47796421D01*
X43747590Y-48301860D02*
X43713145Y-48040226D01*
X83450211Y-139836186D02*
X83450211Y-140560796D01*
X63137914Y-140010796D02*
X63136613Y-140493276D01*
X62305018Y-141644552D02*
X62575619Y-141532465D01*
X62011613Y-141678459D02*
X62305018Y-141644552D01*
X62807991Y-141354161D02*
X62986295Y-141121790D01*
X62575619Y-141532465D02*
X62807991Y-141354161D01*
X62986295Y-141121790D02*
X63098382Y-140851188D01*
X63098382Y-140851188D02*
X63135114Y-140543186D01*
X84280334Y-141642633D02*
X84570211Y-141680796D01*
X83778252Y-141352756D02*
X84010211Y-141530745D01*
X83450211Y-140560796D02*
X83488375Y-140850674D01*
X84010211Y-141530745D02*
X84280334Y-141642633D01*
X63135114Y-140543186D02*
X63136613Y-140493276D01*
X83488375Y-140850674D02*
X83600263Y-141120796D01*
X83600263Y-141120796D02*
X83778252Y-141352756D01*
X82707311Y-138848596D02*
X82753114Y-138868296D01*
X82968114Y-138994396D02*
X83007714Y-139024826D01*
X82418511Y-138771756D02*
X82467812Y-138779516D01*
X82516812Y-138789316D02*
X82565312Y-138801146D01*
X82565312Y-138801146D02*
X82613213Y-138814986D01*
X82660611Y-138830816D02*
X82707311Y-138848596D01*
X82206712Y-138762036D02*
X82269212Y-138760866D01*
X83046014Y-139056876D02*
X83082913Y-139090486D01*
X83321912Y-139408237D02*
X83298013Y-139364406D01*
X83298013Y-139364406D02*
X83272313Y-139321606D01*
X82885312Y-138938607D02*
X82927312Y-138965646D01*
X83413113Y-139640176D02*
X83425412Y-139688556D01*
X82269212Y-138760866D02*
X82319112Y-138762416D01*
X63289212Y-139375266D02*
X63314511Y-139332206D01*
X63828912Y-138873516D02*
X63874612Y-138853336D01*
X63784112Y-138895587D02*
X63828912Y-138873516D01*
X63576013Y-139032686D02*
X63615312Y-139001846D01*
X64162614Y-138773496D02*
X64212113Y-138767286D01*
X64113313Y-138781776D02*
X64162614Y-138773496D01*
X63265813Y-139419346D02*
X63289212Y-139375266D01*
X63400712Y-139209826D02*
X63432813Y-139171536D01*
X63341512Y-139290226D02*
X63370313Y-139249406D01*
X63142011Y-139848606D02*
X63147714Y-139799006D01*
X63155412Y-139749686D02*
X63165212Y-139700726D01*
X63190911Y-139604246D02*
X63206712Y-139556896D01*
X63138314Y-139898406D02*
X63142011Y-139848606D01*
X63655812Y-138972667D02*
X63697511Y-138945206D01*
X63501511Y-139099136D02*
X63538113Y-139065136D01*
X63466412Y-139134616D02*
X63501511Y-139099136D01*
X63538113Y-139065136D02*
X63576013Y-139032686D01*
X63615312Y-139001846D02*
X63655812Y-138972667D01*
X63921113Y-138835076D02*
X63968312Y-138818756D01*
X63874612Y-138853336D02*
X63921113Y-138835076D01*
X63968312Y-138818756D02*
X64016114Y-138804426D01*
X64064511Y-138792086D02*
X64113313Y-138781776D01*
X64212113Y-138767286D02*
X64261811Y-138763136D01*
X63244214Y-139464366D02*
X63265813Y-139419346D01*
X63224511Y-139510237D02*
X63244214Y-139464366D01*
X63370313Y-139249406D02*
X63400712Y-139209826D01*
X63147714Y-139799006D02*
X63155412Y-139749686D01*
X63165212Y-139700726D02*
X63177113Y-139652226D01*
X63177113Y-139652226D02*
X63190911Y-139604246D01*
X63206712Y-139556896D02*
X63224511Y-139510237D01*
X63137914Y-140010796D02*
X63136811Y-139948316D01*
X63432813Y-139171536D02*
X63466412Y-139134616D01*
X63740312Y-138919496D02*
X63784112Y-138895587D01*
X63697511Y-138945206D02*
X63740312Y-138919496D01*
X64261811Y-138763136D02*
X64311711Y-138761056D01*
X63314511Y-139332206D02*
X63341512Y-139290226D01*
X64311711Y-138761056D02*
X64386712Y-138762096D01*
X64016114Y-138804426D02*
X64064511Y-138792086D01*
X63136811Y-139948316D02*
X63138314Y-139898406D01*
X44986712Y-50219494D02*
X44911711Y-50220501D01*
X64386712Y-138762096D02*
X82206712Y-138762036D01*
X82842214Y-138913346D02*
X82885312Y-138938607D01*
X83364213Y-139498696D02*
X83344014Y-139453026D01*
X83344014Y-139453026D02*
X83321912Y-139408237D01*
X83215611Y-139239396D02*
X83184811Y-139200126D01*
X83444013Y-139786646D02*
X83450211Y-139836186D01*
X83435712Y-139737406D02*
X83444013Y-139786646D01*
X82798112Y-138889896D02*
X82842214Y-138913346D01*
X83007714Y-139024826D02*
X83046014Y-139056876D01*
X82927312Y-138965646D02*
X82968114Y-138994396D01*
X82368913Y-138766056D02*
X82418511Y-138771756D01*
X82467812Y-138779516D02*
X82516812Y-138789316D01*
X82613213Y-138814986D02*
X82660611Y-138830816D01*
X82319112Y-138762416D02*
X82368913Y-138766056D01*
X83272313Y-139321606D02*
X83244813Y-139279906D01*
X83152413Y-139162176D02*
X83118413Y-139125616D01*
X83082913Y-139090486D02*
X83118413Y-139125616D01*
X83184811Y-139200126D02*
X83152413Y-139162176D01*
X83244813Y-139279906D02*
X83215611Y-139239396D01*
X83398713Y-139592346D02*
X83382413Y-139545167D01*
X83382413Y-139545167D02*
X83364213Y-139498696D01*
X83413113Y-139640176D02*
X83398713Y-139592346D01*
X83425412Y-139688556D02*
X83435712Y-139737406D01*
X82753114Y-138868296D02*
X82798112Y-138889896D01*
X96856712Y-50219600D02*
X44986712Y-50219494D01*
X27066972Y-140505756D02*
X27067023Y-104845896D01*
M02*
