G04 #@! TF.GenerationSoftware,KiCad,Pcbnew,(5.1.9)-1*
G04 #@! TF.CreationDate,2021-06-08T10:33:40+02:00*
G04 #@! TF.ProjectId,DynaQube,44796e61-5175-4626-952e-6b696361645f,v1.2*
G04 #@! TF.SameCoordinates,Original*
G04 #@! TF.FileFunction,Soldermask,Top*
G04 #@! TF.FilePolarity,Negative*
%FSLAX46Y46*%
G04 Gerber Fmt 4.6, Leading zero omitted, Abs format (unit mm)*
G04 Created by KiCad (PCBNEW (5.1.9)-1) date 2021-06-08 10:33:40*
%MOMM*%
%LPD*%
G01*
G04 APERTURE LIST*
%ADD10R,1.220000X0.650000*%
%ADD11R,1.800000X2.500000*%
%ADD12R,1.400000X0.300000*%
%ADD13O,1.700000X1.700000*%
%ADD14R,1.700000X1.700000*%
%ADD15R,1.060000X0.650000*%
%ADD16C,2.000000*%
%ADD17C,0.100000*%
%ADD18R,2.500000X1.800000*%
%ADD19O,2.000000X1.700000*%
%ADD20C,0.400000*%
%ADD21R,0.900000X0.800000*%
%ADD22R,1.500000X2.000000*%
%ADD23R,3.800000X2.000000*%
%ADD24R,2.800000X1.000000*%
%ADD25R,1.160000X0.600000*%
%ADD26C,0.600000*%
%ADD27R,1.160000X0.300000*%
%ADD28O,1.700000X0.900000*%
%ADD29O,2.000000X0.900000*%
%ADD30R,1.500000X1.000000*%
%ADD31C,6.400000*%
G04 APERTURE END LIST*
G36*
G01*
X57575000Y-75375000D02*
X56325000Y-75375000D01*
G75*
G02*
X56075000Y-75125000I0J250000D01*
G01*
X56075000Y-74375000D01*
G75*
G02*
X56325000Y-74125000I250000J0D01*
G01*
X57575000Y-74125000D01*
G75*
G02*
X57825000Y-74375000I0J-250000D01*
G01*
X57825000Y-75125000D01*
G75*
G02*
X57575000Y-75375000I-250000J0D01*
G01*
G37*
G36*
G01*
X57575000Y-78175000D02*
X56325000Y-78175000D01*
G75*
G02*
X56075000Y-77925000I0J250000D01*
G01*
X56075000Y-77175000D01*
G75*
G02*
X56325000Y-76925000I250000J0D01*
G01*
X57575000Y-76925000D01*
G75*
G02*
X57825000Y-77175000I0J-250000D01*
G01*
X57825000Y-77925000D01*
G75*
G02*
X57575000Y-78175000I-250000J0D01*
G01*
G37*
G36*
G01*
X39875001Y-125650000D02*
X39024999Y-125650000D01*
G75*
G02*
X38775000Y-125400001I0J249999D01*
G01*
X38775000Y-124499999D01*
G75*
G02*
X39024999Y-124250000I249999J0D01*
G01*
X39875001Y-124250000D01*
G75*
G02*
X40125000Y-124499999I0J-249999D01*
G01*
X40125000Y-125400001D01*
G75*
G02*
X39875001Y-125650000I-249999J0D01*
G01*
G37*
G36*
G01*
X39875001Y-128350000D02*
X39024999Y-128350000D01*
G75*
G02*
X38775000Y-128100001I0J249999D01*
G01*
X38775000Y-127199999D01*
G75*
G02*
X39024999Y-126950000I249999J0D01*
G01*
X39875001Y-126950000D01*
G75*
G02*
X40125000Y-127199999I0J-249999D01*
G01*
X40125000Y-128100001D01*
G75*
G02*
X39875001Y-128350000I-249999J0D01*
G01*
G37*
D10*
X48790000Y-77200000D03*
X48790000Y-75300000D03*
X51410000Y-75300000D03*
X51410000Y-76250000D03*
X51410000Y-77200000D03*
G36*
G01*
X45825000Y-74925000D02*
X47075000Y-74925000D01*
G75*
G02*
X47325000Y-75175000I0J-250000D01*
G01*
X47325000Y-75925000D01*
G75*
G02*
X47075000Y-76175000I-250000J0D01*
G01*
X45825000Y-76175000D01*
G75*
G02*
X45575000Y-75925000I0J250000D01*
G01*
X45575000Y-75175000D01*
G75*
G02*
X45825000Y-74925000I250000J0D01*
G01*
G37*
G36*
G01*
X45825000Y-72125000D02*
X47075000Y-72125000D01*
G75*
G02*
X47325000Y-72375000I0J-250000D01*
G01*
X47325000Y-73125000D01*
G75*
G02*
X47075000Y-73375000I-250000J0D01*
G01*
X45825000Y-73375000D01*
G75*
G02*
X45575000Y-73125000I0J250000D01*
G01*
X45575000Y-72375000D01*
G75*
G02*
X45825000Y-72125000I250000J0D01*
G01*
G37*
G36*
G01*
X52225000Y-71625000D02*
X52225000Y-72875000D01*
G75*
G02*
X51975000Y-73125000I-250000J0D01*
G01*
X51225000Y-73125000D01*
G75*
G02*
X50975000Y-72875000I0J250000D01*
G01*
X50975000Y-71625000D01*
G75*
G02*
X51225000Y-71375000I250000J0D01*
G01*
X51975000Y-71375000D01*
G75*
G02*
X52225000Y-71625000I0J-250000D01*
G01*
G37*
G36*
G01*
X55025000Y-71625000D02*
X55025000Y-72875000D01*
G75*
G02*
X54775000Y-73125000I-250000J0D01*
G01*
X54025000Y-73125000D01*
G75*
G02*
X53775000Y-72875000I0J250000D01*
G01*
X53775000Y-71625000D01*
G75*
G02*
X54025000Y-71375000I250000J0D01*
G01*
X54775000Y-71375000D01*
G75*
G02*
X55025000Y-71625000I0J-250000D01*
G01*
G37*
D11*
X69350000Y-78650000D03*
X69350000Y-74650000D03*
G36*
G01*
X45775000Y-79675000D02*
X47025000Y-79675000D01*
G75*
G02*
X47275000Y-79925000I0J-250000D01*
G01*
X47275000Y-80675000D01*
G75*
G02*
X47025000Y-80925000I-250000J0D01*
G01*
X45775000Y-80925000D01*
G75*
G02*
X45525000Y-80675000I0J250000D01*
G01*
X45525000Y-79925000D01*
G75*
G02*
X45775000Y-79675000I250000J0D01*
G01*
G37*
G36*
G01*
X45775000Y-76875000D02*
X47025000Y-76875000D01*
G75*
G02*
X47275000Y-77125000I0J-250000D01*
G01*
X47275000Y-77875000D01*
G75*
G02*
X47025000Y-78125000I-250000J0D01*
G01*
X45775000Y-78125000D01*
G75*
G02*
X45525000Y-77875000I0J250000D01*
G01*
X45525000Y-77125000D01*
G75*
G02*
X45775000Y-76875000I250000J0D01*
G01*
G37*
G36*
G01*
X54875000Y-75475000D02*
X53625000Y-75475000D01*
G75*
G02*
X53375000Y-75225000I0J250000D01*
G01*
X53375000Y-74475000D01*
G75*
G02*
X53625000Y-74225000I250000J0D01*
G01*
X54875000Y-74225000D01*
G75*
G02*
X55125000Y-74475000I0J-250000D01*
G01*
X55125000Y-75225000D01*
G75*
G02*
X54875000Y-75475000I-250000J0D01*
G01*
G37*
G36*
G01*
X54875000Y-78275000D02*
X53625000Y-78275000D01*
G75*
G02*
X53375000Y-78025000I0J250000D01*
G01*
X53375000Y-77275000D01*
G75*
G02*
X53625000Y-77025000I250000J0D01*
G01*
X54875000Y-77025000D01*
G75*
G02*
X55125000Y-77275000I0J-250000D01*
G01*
X55125000Y-78025000D01*
G75*
G02*
X54875000Y-78275000I-250000J0D01*
G01*
G37*
D12*
X59790000Y-99330000D03*
X59790000Y-99830000D03*
X59790000Y-100330000D03*
X59790000Y-100830000D03*
X59790000Y-101330000D03*
X55390000Y-101330000D03*
X55390000Y-100830000D03*
X55390000Y-100330000D03*
X55390000Y-99830000D03*
X55390000Y-99330000D03*
G36*
G01*
X57725000Y-96575000D02*
X57725000Y-97825000D01*
G75*
G02*
X57475000Y-98075000I-250000J0D01*
G01*
X56725000Y-98075000D01*
G75*
G02*
X56475000Y-97825000I0J250000D01*
G01*
X56475000Y-96575000D01*
G75*
G02*
X56725000Y-96325000I250000J0D01*
G01*
X57475000Y-96325000D01*
G75*
G02*
X57725000Y-96575000I0J-250000D01*
G01*
G37*
G36*
G01*
X60525000Y-96575000D02*
X60525000Y-97825000D01*
G75*
G02*
X60275000Y-98075000I-250000J0D01*
G01*
X59525000Y-98075000D01*
G75*
G02*
X59275000Y-97825000I0J250000D01*
G01*
X59275000Y-96575000D01*
G75*
G02*
X59525000Y-96325000I250000J0D01*
G01*
X60275000Y-96325000D01*
G75*
G02*
X60525000Y-96575000I0J-250000D01*
G01*
G37*
G36*
G01*
X57725000Y-103275000D02*
X57725000Y-104525000D01*
G75*
G02*
X57475000Y-104775000I-250000J0D01*
G01*
X56725000Y-104775000D01*
G75*
G02*
X56475000Y-104525000I0J250000D01*
G01*
X56475000Y-103275000D01*
G75*
G02*
X56725000Y-103025000I250000J0D01*
G01*
X57475000Y-103025000D01*
G75*
G02*
X57725000Y-103275000I0J-250000D01*
G01*
G37*
G36*
G01*
X60525000Y-103275000D02*
X60525000Y-104525000D01*
G75*
G02*
X60275000Y-104775000I-250000J0D01*
G01*
X59525000Y-104775000D01*
G75*
G02*
X59275000Y-104525000I0J250000D01*
G01*
X59275000Y-103275000D01*
G75*
G02*
X59525000Y-103025000I250000J0D01*
G01*
X60275000Y-103025000D01*
G75*
G02*
X60525000Y-103275000I0J-250000D01*
G01*
G37*
G36*
G01*
X81975000Y-67775000D02*
X83225000Y-67775000D01*
G75*
G02*
X83475000Y-68025000I0J-250000D01*
G01*
X83475000Y-68775000D01*
G75*
G02*
X83225000Y-69025000I-250000J0D01*
G01*
X81975000Y-69025000D01*
G75*
G02*
X81725000Y-68775000I0J250000D01*
G01*
X81725000Y-68025000D01*
G75*
G02*
X81975000Y-67775000I250000J0D01*
G01*
G37*
G36*
G01*
X81975000Y-64975000D02*
X83225000Y-64975000D01*
G75*
G02*
X83475000Y-65225000I0J-250000D01*
G01*
X83475000Y-65975000D01*
G75*
G02*
X83225000Y-66225000I-250000J0D01*
G01*
X81975000Y-66225000D01*
G75*
G02*
X81725000Y-65975000I0J250000D01*
G01*
X81725000Y-65225000D01*
G75*
G02*
X81975000Y-64975000I250000J0D01*
G01*
G37*
D13*
X47000000Y-60150000D03*
X47000000Y-62690000D03*
X49540000Y-60150000D03*
X49540000Y-62690000D03*
X52080000Y-60150000D03*
X52080000Y-62690000D03*
X54620000Y-60150000D03*
X54620000Y-62690000D03*
X57160000Y-60150000D03*
X57160000Y-62690000D03*
X59700000Y-60150000D03*
X59700000Y-62690000D03*
X62240000Y-60150000D03*
X62240000Y-62690000D03*
X64780000Y-60150000D03*
X64780000Y-62690000D03*
X67320000Y-60150000D03*
X67320000Y-62690000D03*
X69860000Y-60150000D03*
X69860000Y-62690000D03*
X72400000Y-60150000D03*
X72400000Y-62690000D03*
X74940000Y-60150000D03*
X74940000Y-62690000D03*
X77480000Y-60150000D03*
X77480000Y-62690000D03*
X80020000Y-60150000D03*
X80020000Y-62690000D03*
X82560000Y-60150000D03*
X82560000Y-62690000D03*
X85100000Y-60150000D03*
X85100000Y-62690000D03*
X87640000Y-60150000D03*
X87640000Y-62690000D03*
X90180000Y-60150000D03*
X90180000Y-62690000D03*
X92720000Y-60150000D03*
X92720000Y-62690000D03*
X95260000Y-60150000D03*
D14*
X95260000Y-62690000D03*
D15*
X44300000Y-99000000D03*
X44300000Y-98050000D03*
X44300000Y-99950000D03*
X42100000Y-99950000D03*
X42100000Y-99000000D03*
X42100000Y-98050000D03*
D16*
X38200000Y-84200000D03*
X39600000Y-61400000D03*
G36*
G01*
X41025000Y-102425000D02*
X39775000Y-102425000D01*
G75*
G02*
X39525000Y-102175000I0J250000D01*
G01*
X39525000Y-101425000D01*
G75*
G02*
X39775000Y-101175000I250000J0D01*
G01*
X41025000Y-101175000D01*
G75*
G02*
X41275000Y-101425000I0J-250000D01*
G01*
X41275000Y-102175000D01*
G75*
G02*
X41025000Y-102425000I-250000J0D01*
G01*
G37*
G36*
G01*
X41025000Y-105225000D02*
X39775000Y-105225000D01*
G75*
G02*
X39525000Y-104975000I0J250000D01*
G01*
X39525000Y-104225000D01*
G75*
G02*
X39775000Y-103975000I250000J0D01*
G01*
X41025000Y-103975000D01*
G75*
G02*
X41275000Y-104225000I0J-250000D01*
G01*
X41275000Y-104975000D01*
G75*
G02*
X41025000Y-105225000I-250000J0D01*
G01*
G37*
G36*
G01*
X38225000Y-102425000D02*
X36975000Y-102425000D01*
G75*
G02*
X36725000Y-102175000I0J250000D01*
G01*
X36725000Y-101425000D01*
G75*
G02*
X36975000Y-101175000I250000J0D01*
G01*
X38225000Y-101175000D01*
G75*
G02*
X38475000Y-101425000I0J-250000D01*
G01*
X38475000Y-102175000D01*
G75*
G02*
X38225000Y-102425000I-250000J0D01*
G01*
G37*
G36*
G01*
X38225000Y-105225000D02*
X36975000Y-105225000D01*
G75*
G02*
X36725000Y-104975000I0J250000D01*
G01*
X36725000Y-104225000D01*
G75*
G02*
X36975000Y-103975000I250000J0D01*
G01*
X38225000Y-103975000D01*
G75*
G02*
X38475000Y-104225000I0J-250000D01*
G01*
X38475000Y-104975000D01*
G75*
G02*
X38225000Y-105225000I-250000J0D01*
G01*
G37*
G36*
G01*
X43825000Y-102425000D02*
X42575000Y-102425000D01*
G75*
G02*
X42325000Y-102175000I0J250000D01*
G01*
X42325000Y-101425000D01*
G75*
G02*
X42575000Y-101175000I250000J0D01*
G01*
X43825000Y-101175000D01*
G75*
G02*
X44075000Y-101425000I0J-250000D01*
G01*
X44075000Y-102175000D01*
G75*
G02*
X43825000Y-102425000I-250000J0D01*
G01*
G37*
G36*
G01*
X43825000Y-105225000D02*
X42575000Y-105225000D01*
G75*
G02*
X42325000Y-104975000I0J250000D01*
G01*
X42325000Y-104225000D01*
G75*
G02*
X42575000Y-103975000I250000J0D01*
G01*
X43825000Y-103975000D01*
G75*
G02*
X44075000Y-104225000I0J-250000D01*
G01*
X44075000Y-104975000D01*
G75*
G02*
X43825000Y-105225000I-250000J0D01*
G01*
G37*
D17*
G36*
X44550000Y-95470000D02*
G01*
X45130000Y-94875000D01*
X45130000Y-93725000D01*
X44550000Y-93130000D01*
X44550000Y-92355000D01*
X45440000Y-92355000D01*
X46000000Y-92905000D01*
X46000000Y-95695000D01*
X45440000Y-96245000D01*
X44550000Y-96245000D01*
X44550000Y-95470000D01*
G37*
G36*
X41600000Y-95695000D02*
G01*
X41600000Y-92905000D01*
X42160000Y-92355000D01*
X43050000Y-92355000D01*
X43050000Y-93130000D01*
X42470000Y-93725000D01*
X42470000Y-94875000D01*
X43050000Y-95470000D01*
X43050000Y-96245000D01*
X42160000Y-96245000D01*
X41600000Y-95695000D01*
G37*
D18*
X39400000Y-94600000D03*
X35400000Y-94600000D03*
G36*
G01*
X46375000Y-101175000D02*
X47625000Y-101175000D01*
G75*
G02*
X47875000Y-101425000I0J-250000D01*
G01*
X47875000Y-102175000D01*
G75*
G02*
X47625000Y-102425000I-250000J0D01*
G01*
X46375000Y-102425000D01*
G75*
G02*
X46125000Y-102175000I0J250000D01*
G01*
X46125000Y-101425000D01*
G75*
G02*
X46375000Y-101175000I250000J0D01*
G01*
G37*
G36*
G01*
X46375000Y-98375000D02*
X47625000Y-98375000D01*
G75*
G02*
X47875000Y-98625000I0J-250000D01*
G01*
X47875000Y-99375000D01*
G75*
G02*
X47625000Y-99625000I-250000J0D01*
G01*
X46375000Y-99625000D01*
G75*
G02*
X46125000Y-99375000I0J250000D01*
G01*
X46125000Y-98625000D01*
G75*
G02*
X46375000Y-98375000I250000J0D01*
G01*
G37*
G36*
G01*
X49175000Y-101175000D02*
X50425000Y-101175000D01*
G75*
G02*
X50675000Y-101425000I0J-250000D01*
G01*
X50675000Y-102175000D01*
G75*
G02*
X50425000Y-102425000I-250000J0D01*
G01*
X49175000Y-102425000D01*
G75*
G02*
X48925000Y-102175000I0J250000D01*
G01*
X48925000Y-101425000D01*
G75*
G02*
X49175000Y-101175000I250000J0D01*
G01*
G37*
G36*
G01*
X49175000Y-98375000D02*
X50425000Y-98375000D01*
G75*
G02*
X50675000Y-98625000I0J-250000D01*
G01*
X50675000Y-99375000D01*
G75*
G02*
X50425000Y-99625000I-250000J0D01*
G01*
X49175000Y-99625000D01*
G75*
G02*
X48925000Y-99375000I0J250000D01*
G01*
X48925000Y-98625000D01*
G75*
G02*
X49175000Y-98375000I250000J0D01*
G01*
G37*
G36*
G01*
X36025000Y-89225000D02*
X34775000Y-89225000D01*
G75*
G02*
X34525000Y-88975000I0J250000D01*
G01*
X34525000Y-88225000D01*
G75*
G02*
X34775000Y-87975000I250000J0D01*
G01*
X36025000Y-87975000D01*
G75*
G02*
X36275000Y-88225000I0J-250000D01*
G01*
X36275000Y-88975000D01*
G75*
G02*
X36025000Y-89225000I-250000J0D01*
G01*
G37*
G36*
G01*
X36025000Y-92025000D02*
X34775000Y-92025000D01*
G75*
G02*
X34525000Y-91775000I0J250000D01*
G01*
X34525000Y-91025000D01*
G75*
G02*
X34775000Y-90775000I250000J0D01*
G01*
X36025000Y-90775000D01*
G75*
G02*
X36275000Y-91025000I0J-250000D01*
G01*
X36275000Y-91775000D01*
G75*
G02*
X36025000Y-92025000I-250000J0D01*
G01*
G37*
G36*
G01*
X39225000Y-89225000D02*
X37975000Y-89225000D01*
G75*
G02*
X37725000Y-88975000I0J250000D01*
G01*
X37725000Y-88225000D01*
G75*
G02*
X37975000Y-87975000I250000J0D01*
G01*
X39225000Y-87975000D01*
G75*
G02*
X39475000Y-88225000I0J-250000D01*
G01*
X39475000Y-88975000D01*
G75*
G02*
X39225000Y-89225000I-250000J0D01*
G01*
G37*
G36*
G01*
X39225000Y-92025000D02*
X37975000Y-92025000D01*
G75*
G02*
X37725000Y-91775000I0J250000D01*
G01*
X37725000Y-91025000D01*
G75*
G02*
X37975000Y-90775000I250000J0D01*
G01*
X39225000Y-90775000D01*
G75*
G02*
X39475000Y-91025000I0J-250000D01*
G01*
X39475000Y-91775000D01*
G75*
G02*
X39225000Y-92025000I-250000J0D01*
G01*
G37*
D11*
X42400000Y-70200000D03*
X42400000Y-66200000D03*
G36*
G01*
X54850000Y-81845000D02*
X54850000Y-81545000D01*
G75*
G02*
X55000000Y-81395000I150000J0D01*
G01*
X56300000Y-81395000D01*
G75*
G02*
X56450000Y-81545000I0J-150000D01*
G01*
X56450000Y-81845000D01*
G75*
G02*
X56300000Y-81995000I-150000J0D01*
G01*
X55000000Y-81995000D01*
G75*
G02*
X54850000Y-81845000I0J150000D01*
G01*
G37*
G36*
G01*
X54850000Y-83115000D02*
X54850000Y-82815000D01*
G75*
G02*
X55000000Y-82665000I150000J0D01*
G01*
X56300000Y-82665000D01*
G75*
G02*
X56450000Y-82815000I0J-150000D01*
G01*
X56450000Y-83115000D01*
G75*
G02*
X56300000Y-83265000I-150000J0D01*
G01*
X55000000Y-83265000D01*
G75*
G02*
X54850000Y-83115000I0J150000D01*
G01*
G37*
G36*
G01*
X54850000Y-84385000D02*
X54850000Y-84085000D01*
G75*
G02*
X55000000Y-83935000I150000J0D01*
G01*
X56300000Y-83935000D01*
G75*
G02*
X56450000Y-84085000I0J-150000D01*
G01*
X56450000Y-84385000D01*
G75*
G02*
X56300000Y-84535000I-150000J0D01*
G01*
X55000000Y-84535000D01*
G75*
G02*
X54850000Y-84385000I0J150000D01*
G01*
G37*
G36*
G01*
X54850000Y-85655000D02*
X54850000Y-85355000D01*
G75*
G02*
X55000000Y-85205000I150000J0D01*
G01*
X56300000Y-85205000D01*
G75*
G02*
X56450000Y-85355000I0J-150000D01*
G01*
X56450000Y-85655000D01*
G75*
G02*
X56300000Y-85805000I-150000J0D01*
G01*
X55000000Y-85805000D01*
G75*
G02*
X54850000Y-85655000I0J150000D01*
G01*
G37*
G36*
G01*
X49550000Y-85655000D02*
X49550000Y-85355000D01*
G75*
G02*
X49700000Y-85205000I150000J0D01*
G01*
X51000000Y-85205000D01*
G75*
G02*
X51150000Y-85355000I0J-150000D01*
G01*
X51150000Y-85655000D01*
G75*
G02*
X51000000Y-85805000I-150000J0D01*
G01*
X49700000Y-85805000D01*
G75*
G02*
X49550000Y-85655000I0J150000D01*
G01*
G37*
G36*
G01*
X49550000Y-84385000D02*
X49550000Y-84085000D01*
G75*
G02*
X49700000Y-83935000I150000J0D01*
G01*
X51000000Y-83935000D01*
G75*
G02*
X51150000Y-84085000I0J-150000D01*
G01*
X51150000Y-84385000D01*
G75*
G02*
X51000000Y-84535000I-150000J0D01*
G01*
X49700000Y-84535000D01*
G75*
G02*
X49550000Y-84385000I0J150000D01*
G01*
G37*
G36*
G01*
X49550000Y-83115000D02*
X49550000Y-82815000D01*
G75*
G02*
X49700000Y-82665000I150000J0D01*
G01*
X51000000Y-82665000D01*
G75*
G02*
X51150000Y-82815000I0J-150000D01*
G01*
X51150000Y-83115000D01*
G75*
G02*
X51000000Y-83265000I-150000J0D01*
G01*
X49700000Y-83265000D01*
G75*
G02*
X49550000Y-83115000I0J150000D01*
G01*
G37*
G36*
G01*
X49550000Y-81845000D02*
X49550000Y-81545000D01*
G75*
G02*
X49700000Y-81395000I150000J0D01*
G01*
X51000000Y-81395000D01*
G75*
G02*
X51150000Y-81545000I0J-150000D01*
G01*
X51150000Y-81845000D01*
G75*
G02*
X51000000Y-81995000I-150000J0D01*
G01*
X49700000Y-81995000D01*
G75*
G02*
X49550000Y-81845000I0J150000D01*
G01*
G37*
G36*
G01*
X51795000Y-84899360D02*
X51795000Y-82300640D01*
G75*
G02*
X52045640Y-82050000I250640J0D01*
G01*
X53954360Y-82050000D01*
G75*
G02*
X54205000Y-82300640I0J-250640D01*
G01*
X54205000Y-84899360D01*
G75*
G02*
X53954360Y-85150000I-250640J0D01*
G01*
X52045640Y-85150000D01*
G75*
G02*
X51795000Y-84899360I0J250640D01*
G01*
G37*
G36*
G01*
X58775000Y-76975000D02*
X60025000Y-76975000D01*
G75*
G02*
X60275000Y-77225000I0J-250000D01*
G01*
X60275000Y-77975000D01*
G75*
G02*
X60025000Y-78225000I-250000J0D01*
G01*
X58775000Y-78225000D01*
G75*
G02*
X58525000Y-77975000I0J250000D01*
G01*
X58525000Y-77225000D01*
G75*
G02*
X58775000Y-76975000I250000J0D01*
G01*
G37*
G36*
G01*
X58775000Y-74175000D02*
X60025000Y-74175000D01*
G75*
G02*
X60275000Y-74425000I0J-250000D01*
G01*
X60275000Y-75175000D01*
G75*
G02*
X60025000Y-75425000I-250000J0D01*
G01*
X58775000Y-75425000D01*
G75*
G02*
X58525000Y-75175000I0J250000D01*
G01*
X58525000Y-74425000D01*
G75*
G02*
X58775000Y-74175000I250000J0D01*
G01*
G37*
G36*
G01*
X41975000Y-84375000D02*
X43225000Y-84375000D01*
G75*
G02*
X43475000Y-84625000I0J-250000D01*
G01*
X43475000Y-85375000D01*
G75*
G02*
X43225000Y-85625000I-250000J0D01*
G01*
X41975000Y-85625000D01*
G75*
G02*
X41725000Y-85375000I0J250000D01*
G01*
X41725000Y-84625000D01*
G75*
G02*
X41975000Y-84375000I250000J0D01*
G01*
G37*
G36*
G01*
X41975000Y-81575000D02*
X43225000Y-81575000D01*
G75*
G02*
X43475000Y-81825000I0J-250000D01*
G01*
X43475000Y-82575000D01*
G75*
G02*
X43225000Y-82825000I-250000J0D01*
G01*
X41975000Y-82825000D01*
G75*
G02*
X41725000Y-82575000I0J250000D01*
G01*
X41725000Y-81825000D01*
G75*
G02*
X41975000Y-81575000I250000J0D01*
G01*
G37*
G36*
G01*
X59425000Y-82825000D02*
X58175000Y-82825000D01*
G75*
G02*
X57925000Y-82575000I0J250000D01*
G01*
X57925000Y-81825000D01*
G75*
G02*
X58175000Y-81575000I250000J0D01*
G01*
X59425000Y-81575000D01*
G75*
G02*
X59675000Y-81825000I0J-250000D01*
G01*
X59675000Y-82575000D01*
G75*
G02*
X59425000Y-82825000I-250000J0D01*
G01*
G37*
G36*
G01*
X59425000Y-85625000D02*
X58175000Y-85625000D01*
G75*
G02*
X57925000Y-85375000I0J250000D01*
G01*
X57925000Y-84625000D01*
G75*
G02*
X58175000Y-84375000I250000J0D01*
G01*
X59425000Y-84375000D01*
G75*
G02*
X59675000Y-84625000I0J-250000D01*
G01*
X59675000Y-85375000D01*
G75*
G02*
X59425000Y-85625000I-250000J0D01*
G01*
G37*
D19*
X101800000Y-65500000D03*
G36*
G01*
X101050000Y-62150000D02*
X102550000Y-62150000D01*
G75*
G02*
X102800000Y-62400000I0J-250000D01*
G01*
X102800000Y-63600000D01*
G75*
G02*
X102550000Y-63850000I-250000J0D01*
G01*
X101050000Y-63850000D01*
G75*
G02*
X100800000Y-63600000I0J250000D01*
G01*
X100800000Y-62400000D01*
G75*
G02*
X101050000Y-62150000I250000J0D01*
G01*
G37*
G36*
G01*
X66425000Y-75425000D02*
X65175000Y-75425000D01*
G75*
G02*
X64925000Y-75175000I0J250000D01*
G01*
X64925000Y-74425000D01*
G75*
G02*
X65175000Y-74175000I250000J0D01*
G01*
X66425000Y-74175000D01*
G75*
G02*
X66675000Y-74425000I0J-250000D01*
G01*
X66675000Y-75175000D01*
G75*
G02*
X66425000Y-75425000I-250000J0D01*
G01*
G37*
G36*
G01*
X66425000Y-78225000D02*
X65175000Y-78225000D01*
G75*
G02*
X64925000Y-77975000I0J250000D01*
G01*
X64925000Y-77225000D01*
G75*
G02*
X65175000Y-76975000I250000J0D01*
G01*
X66425000Y-76975000D01*
G75*
G02*
X66675000Y-77225000I0J-250000D01*
G01*
X66675000Y-77975000D01*
G75*
G02*
X66425000Y-78225000I-250000J0D01*
G01*
G37*
G36*
G01*
X63225000Y-75425000D02*
X61975000Y-75425000D01*
G75*
G02*
X61725000Y-75175000I0J250000D01*
G01*
X61725000Y-74425000D01*
G75*
G02*
X61975000Y-74175000I250000J0D01*
G01*
X63225000Y-74175000D01*
G75*
G02*
X63475000Y-74425000I0J-250000D01*
G01*
X63475000Y-75175000D01*
G75*
G02*
X63225000Y-75425000I-250000J0D01*
G01*
G37*
G36*
G01*
X63225000Y-78225000D02*
X61975000Y-78225000D01*
G75*
G02*
X61725000Y-77975000I0J250000D01*
G01*
X61725000Y-77225000D01*
G75*
G02*
X61975000Y-76975000I250000J0D01*
G01*
X63225000Y-76975000D01*
G75*
G02*
X63475000Y-77225000I0J-250000D01*
G01*
X63475000Y-77975000D01*
G75*
G02*
X63225000Y-78225000I-250000J0D01*
G01*
G37*
D11*
X46600000Y-70200000D03*
X46600000Y-66200000D03*
X42400000Y-79200000D03*
X42400000Y-75200000D03*
G36*
G01*
X61625001Y-82950000D02*
X60774999Y-82950000D01*
G75*
G02*
X60525000Y-82700001I0J249999D01*
G01*
X60525000Y-81799999D01*
G75*
G02*
X60774999Y-81550000I249999J0D01*
G01*
X61625001Y-81550000D01*
G75*
G02*
X61875000Y-81799999I0J-249999D01*
G01*
X61875000Y-82700001D01*
G75*
G02*
X61625001Y-82950000I-249999J0D01*
G01*
G37*
G36*
G01*
X61625001Y-85650000D02*
X60774999Y-85650000D01*
G75*
G02*
X60525000Y-85400001I0J249999D01*
G01*
X60525000Y-84499999D01*
G75*
G02*
X60774999Y-84250000I249999J0D01*
G01*
X61625001Y-84250000D01*
G75*
G02*
X61875000Y-84499999I0J-249999D01*
G01*
X61875000Y-85400001D01*
G75*
G02*
X61625001Y-85650000I-249999J0D01*
G01*
G37*
G36*
G01*
X46825001Y-83000000D02*
X45974999Y-83000000D01*
G75*
G02*
X45725000Y-82750001I0J249999D01*
G01*
X45725000Y-81849999D01*
G75*
G02*
X45974999Y-81600000I249999J0D01*
G01*
X46825001Y-81600000D01*
G75*
G02*
X47075000Y-81849999I0J-249999D01*
G01*
X47075000Y-82750001D01*
G75*
G02*
X46825001Y-83000000I-249999J0D01*
G01*
G37*
G36*
G01*
X46825001Y-85700000D02*
X45974999Y-85700000D01*
G75*
G02*
X45725000Y-85450001I0J249999D01*
G01*
X45725000Y-84549999D01*
G75*
G02*
X45974999Y-84300000I249999J0D01*
G01*
X46825001Y-84300000D01*
G75*
G02*
X47075000Y-84549999I0J-249999D01*
G01*
X47075000Y-85450001D01*
G75*
G02*
X46825001Y-85700000I-249999J0D01*
G01*
G37*
G36*
G01*
X99375000Y-127975000D02*
X100625000Y-127975000D01*
G75*
G02*
X100875000Y-128225000I0J-250000D01*
G01*
X100875000Y-128975000D01*
G75*
G02*
X100625000Y-129225000I-250000J0D01*
G01*
X99375000Y-129225000D01*
G75*
G02*
X99125000Y-128975000I0J250000D01*
G01*
X99125000Y-128225000D01*
G75*
G02*
X99375000Y-127975000I250000J0D01*
G01*
G37*
G36*
G01*
X99375000Y-125175000D02*
X100625000Y-125175000D01*
G75*
G02*
X100875000Y-125425000I0J-250000D01*
G01*
X100875000Y-126175000D01*
G75*
G02*
X100625000Y-126425000I-250000J0D01*
G01*
X99375000Y-126425000D01*
G75*
G02*
X99125000Y-126175000I0J250000D01*
G01*
X99125000Y-125425000D01*
G75*
G02*
X99375000Y-125175000I250000J0D01*
G01*
G37*
D20*
X95693200Y-109573200D03*
X97166400Y-109624000D03*
X96506000Y-110386000D03*
X96455200Y-108862000D03*
X95693200Y-108100000D03*
X94982000Y-108862000D03*
X94982000Y-110335200D03*
X95693200Y-111097200D03*
X97166400Y-111097200D03*
X97979200Y-110386000D03*
X97979200Y-108862000D03*
X97166400Y-108100000D03*
G36*
G01*
X95388100Y-111660000D02*
X94461900Y-111660000D01*
G75*
G02*
X94375000Y-111573100I0J86900D01*
G01*
X94375000Y-110646900D01*
G75*
G02*
X94461900Y-110560000I86900J0D01*
G01*
X95388100Y-110560000D01*
G75*
G02*
X95475000Y-110646900I0J-86900D01*
G01*
X95475000Y-111573100D01*
G75*
G02*
X95388100Y-111660000I-86900J0D01*
G01*
G37*
G36*
G01*
X95388100Y-110160000D02*
X94461900Y-110160000D01*
G75*
G02*
X94375000Y-110073100I0J86900D01*
G01*
X94375000Y-109146900D01*
G75*
G02*
X94461900Y-109060000I86900J0D01*
G01*
X95388100Y-109060000D01*
G75*
G02*
X95475000Y-109146900I0J-86900D01*
G01*
X95475000Y-110073100D01*
G75*
G02*
X95388100Y-110160000I-86900J0D01*
G01*
G37*
G36*
G01*
X95388100Y-108660000D02*
X94461900Y-108660000D01*
G75*
G02*
X94375000Y-108573100I0J86900D01*
G01*
X94375000Y-107646900D01*
G75*
G02*
X94461900Y-107560000I86900J0D01*
G01*
X95388100Y-107560000D01*
G75*
G02*
X95475000Y-107646900I0J-86900D01*
G01*
X95475000Y-108573100D01*
G75*
G02*
X95388100Y-108660000I-86900J0D01*
G01*
G37*
G36*
G01*
X96888100Y-111660000D02*
X95961900Y-111660000D01*
G75*
G02*
X95875000Y-111573100I0J86900D01*
G01*
X95875000Y-110646900D01*
G75*
G02*
X95961900Y-110560000I86900J0D01*
G01*
X96888100Y-110560000D01*
G75*
G02*
X96975000Y-110646900I0J-86900D01*
G01*
X96975000Y-111573100D01*
G75*
G02*
X96888100Y-111660000I-86900J0D01*
G01*
G37*
G36*
G01*
X96888100Y-110160000D02*
X95961900Y-110160000D01*
G75*
G02*
X95875000Y-110073100I0J86900D01*
G01*
X95875000Y-109146900D01*
G75*
G02*
X95961900Y-109060000I86900J0D01*
G01*
X96888100Y-109060000D01*
G75*
G02*
X96975000Y-109146900I0J-86900D01*
G01*
X96975000Y-110073100D01*
G75*
G02*
X96888100Y-110160000I-86900J0D01*
G01*
G37*
G36*
G01*
X96888100Y-108660000D02*
X95961900Y-108660000D01*
G75*
G02*
X95875000Y-108573100I0J86900D01*
G01*
X95875000Y-107646900D01*
G75*
G02*
X95961900Y-107560000I86900J0D01*
G01*
X96888100Y-107560000D01*
G75*
G02*
X96975000Y-107646900I0J-86900D01*
G01*
X96975000Y-108573100D01*
G75*
G02*
X96888100Y-108660000I-86900J0D01*
G01*
G37*
G36*
G01*
X98388100Y-111660000D02*
X97461900Y-111660000D01*
G75*
G02*
X97375000Y-111573100I0J86900D01*
G01*
X97375000Y-110646900D01*
G75*
G02*
X97461900Y-110560000I86900J0D01*
G01*
X98388100Y-110560000D01*
G75*
G02*
X98475000Y-110646900I0J-86900D01*
G01*
X98475000Y-111573100D01*
G75*
G02*
X98388100Y-111660000I-86900J0D01*
G01*
G37*
G36*
G01*
X98388100Y-110160000D02*
X97461900Y-110160000D01*
G75*
G02*
X97375000Y-110073100I0J86900D01*
G01*
X97375000Y-109146900D01*
G75*
G02*
X97461900Y-109060000I86900J0D01*
G01*
X98388100Y-109060000D01*
G75*
G02*
X98475000Y-109146900I0J-86900D01*
G01*
X98475000Y-110073100D01*
G75*
G02*
X98388100Y-110160000I-86900J0D01*
G01*
G37*
G36*
G01*
X98388100Y-108660000D02*
X97461900Y-108660000D01*
G75*
G02*
X97375000Y-108573100I0J86900D01*
G01*
X97375000Y-107646900D01*
G75*
G02*
X97461900Y-107560000I86900J0D01*
G01*
X98388100Y-107560000D01*
G75*
G02*
X98475000Y-107646900I0J-86900D01*
G01*
X98475000Y-108573100D01*
G75*
G02*
X98388100Y-108660000I-86900J0D01*
G01*
G37*
G36*
G01*
X104878900Y-120250000D02*
X104121100Y-120250000D01*
G75*
G02*
X104050000Y-120178900I0J71100D01*
G01*
X104050000Y-118821100D01*
G75*
G02*
X104121100Y-118750000I71100J0D01*
G01*
X104878900Y-118750000D01*
G75*
G02*
X104950000Y-118821100I0J-71100D01*
G01*
X104950000Y-120178900D01*
G75*
G02*
X104878900Y-120250000I-71100J0D01*
G01*
G37*
G36*
G01*
X103378900Y-120250000D02*
X102621100Y-120250000D01*
G75*
G02*
X102550000Y-120178900I0J71100D01*
G01*
X102550000Y-118821100D01*
G75*
G02*
X102621100Y-118750000I71100J0D01*
G01*
X103378900Y-118750000D01*
G75*
G02*
X103450000Y-118821100I0J-71100D01*
G01*
X103450000Y-120178900D01*
G75*
G02*
X103378900Y-120250000I-71100J0D01*
G01*
G37*
G36*
G01*
X101878900Y-120250000D02*
X101121100Y-120250000D01*
G75*
G02*
X101050000Y-120178900I0J71100D01*
G01*
X101050000Y-118821100D01*
G75*
G02*
X101121100Y-118750000I71100J0D01*
G01*
X101878900Y-118750000D01*
G75*
G02*
X101950000Y-118821100I0J-71100D01*
G01*
X101950000Y-120178900D01*
G75*
G02*
X101878900Y-120250000I-71100J0D01*
G01*
G37*
G36*
G01*
X100378900Y-120250000D02*
X99621100Y-120250000D01*
G75*
G02*
X99550000Y-120178900I0J71100D01*
G01*
X99550000Y-118821100D01*
G75*
G02*
X99621100Y-118750000I71100J0D01*
G01*
X100378900Y-118750000D01*
G75*
G02*
X100450000Y-118821100I0J-71100D01*
G01*
X100450000Y-120178900D01*
G75*
G02*
X100378900Y-120250000I-71100J0D01*
G01*
G37*
G36*
G01*
X98878900Y-120250000D02*
X98121100Y-120250000D01*
G75*
G02*
X98050000Y-120178900I0J71100D01*
G01*
X98050000Y-118821100D01*
G75*
G02*
X98121100Y-118750000I71100J0D01*
G01*
X98878900Y-118750000D01*
G75*
G02*
X98950000Y-118821100I0J-71100D01*
G01*
X98950000Y-120178900D01*
G75*
G02*
X98878900Y-120250000I-71100J0D01*
G01*
G37*
G36*
G01*
X97378900Y-120250000D02*
X96621100Y-120250000D01*
G75*
G02*
X96550000Y-120178900I0J71100D01*
G01*
X96550000Y-118821100D01*
G75*
G02*
X96621100Y-118750000I71100J0D01*
G01*
X97378900Y-118750000D01*
G75*
G02*
X97450000Y-118821100I0J-71100D01*
G01*
X97450000Y-120178900D01*
G75*
G02*
X97378900Y-120250000I-71100J0D01*
G01*
G37*
G36*
G01*
X95878900Y-120250000D02*
X95121100Y-120250000D01*
G75*
G02*
X95050000Y-120178900I0J71100D01*
G01*
X95050000Y-118821100D01*
G75*
G02*
X95121100Y-118750000I71100J0D01*
G01*
X95878900Y-118750000D01*
G75*
G02*
X95950000Y-118821100I0J-71100D01*
G01*
X95950000Y-120178900D01*
G75*
G02*
X95878900Y-120250000I-71100J0D01*
G01*
G37*
G36*
G01*
X94378900Y-120250000D02*
X93621100Y-120250000D01*
G75*
G02*
X93550000Y-120178900I0J71100D01*
G01*
X93550000Y-118821100D01*
G75*
G02*
X93621100Y-118750000I71100J0D01*
G01*
X94378900Y-118750000D01*
G75*
G02*
X94450000Y-118821100I0J-71100D01*
G01*
X94450000Y-120178900D01*
G75*
G02*
X94378900Y-120250000I-71100J0D01*
G01*
G37*
G36*
G01*
X92878900Y-120250000D02*
X92121100Y-120250000D01*
G75*
G02*
X92050000Y-120178900I0J71100D01*
G01*
X92050000Y-118821100D01*
G75*
G02*
X92121100Y-118750000I71100J0D01*
G01*
X92878900Y-118750000D01*
G75*
G02*
X92950000Y-118821100I0J-71100D01*
G01*
X92950000Y-120178900D01*
G75*
G02*
X92878900Y-120250000I-71100J0D01*
G01*
G37*
G36*
G01*
X91378900Y-120250000D02*
X90621100Y-120250000D01*
G75*
G02*
X90550000Y-120178900I0J71100D01*
G01*
X90550000Y-118821100D01*
G75*
G02*
X90621100Y-118750000I71100J0D01*
G01*
X91378900Y-118750000D01*
G75*
G02*
X91450000Y-118821100I0J-71100D01*
G01*
X91450000Y-120178900D01*
G75*
G02*
X91378900Y-120250000I-71100J0D01*
G01*
G37*
G36*
G01*
X89878900Y-120250000D02*
X89121100Y-120250000D01*
G75*
G02*
X89050000Y-120178900I0J71100D01*
G01*
X89050000Y-118821100D01*
G75*
G02*
X89121100Y-118750000I71100J0D01*
G01*
X89878900Y-118750000D01*
G75*
G02*
X89950000Y-118821100I0J-71100D01*
G01*
X89950000Y-120178900D01*
G75*
G02*
X89878900Y-120250000I-71100J0D01*
G01*
G37*
G36*
G01*
X88378900Y-120250000D02*
X87621100Y-120250000D01*
G75*
G02*
X87550000Y-120178900I0J71100D01*
G01*
X87550000Y-118821100D01*
G75*
G02*
X87621100Y-118750000I71100J0D01*
G01*
X88378900Y-118750000D01*
G75*
G02*
X88450000Y-118821100I0J-71100D01*
G01*
X88450000Y-120178900D01*
G75*
G02*
X88378900Y-120250000I-71100J0D01*
G01*
G37*
G36*
G01*
X86878900Y-120250000D02*
X86121100Y-120250000D01*
G75*
G02*
X86050000Y-120178900I0J71100D01*
G01*
X86050000Y-118821100D01*
G75*
G02*
X86121100Y-118750000I71100J0D01*
G01*
X86878900Y-118750000D01*
G75*
G02*
X86950000Y-118821100I0J-71100D01*
G01*
X86950000Y-120178900D01*
G75*
G02*
X86878900Y-120250000I-71100J0D01*
G01*
G37*
G36*
G01*
X85378900Y-120250000D02*
X84621100Y-120250000D01*
G75*
G02*
X84550000Y-120178900I0J71100D01*
G01*
X84550000Y-118821100D01*
G75*
G02*
X84621100Y-118750000I71100J0D01*
G01*
X85378900Y-118750000D01*
G75*
G02*
X85450000Y-118821100I0J-71100D01*
G01*
X85450000Y-120178900D01*
G75*
G02*
X85378900Y-120250000I-71100J0D01*
G01*
G37*
G36*
G01*
X83878900Y-120250000D02*
X83121100Y-120250000D01*
G75*
G02*
X83050000Y-120178900I0J71100D01*
G01*
X83050000Y-118821100D01*
G75*
G02*
X83121100Y-118750000I71100J0D01*
G01*
X83878900Y-118750000D01*
G75*
G02*
X83950000Y-118821100I0J-71100D01*
G01*
X83950000Y-120178900D01*
G75*
G02*
X83878900Y-120250000I-71100J0D01*
G01*
G37*
G36*
G01*
X82378900Y-120250000D02*
X81621100Y-120250000D01*
G75*
G02*
X81550000Y-120178900I0J71100D01*
G01*
X81550000Y-118821100D01*
G75*
G02*
X81621100Y-118750000I71100J0D01*
G01*
X82378900Y-118750000D01*
G75*
G02*
X82450000Y-118821100I0J-71100D01*
G01*
X82450000Y-120178900D01*
G75*
G02*
X82378900Y-120250000I-71100J0D01*
G01*
G37*
G36*
G01*
X80500000Y-117878900D02*
X80500000Y-117121100D01*
G75*
G02*
X80571100Y-117050000I71100J0D01*
G01*
X81928900Y-117050000D01*
G75*
G02*
X82000000Y-117121100I0J-71100D01*
G01*
X82000000Y-117878900D01*
G75*
G02*
X81928900Y-117950000I-71100J0D01*
G01*
X80571100Y-117950000D01*
G75*
G02*
X80500000Y-117878900I0J71100D01*
G01*
G37*
G36*
G01*
X80500000Y-116378900D02*
X80500000Y-115621100D01*
G75*
G02*
X80571100Y-115550000I71100J0D01*
G01*
X81928900Y-115550000D01*
G75*
G02*
X82000000Y-115621100I0J-71100D01*
G01*
X82000000Y-116378900D01*
G75*
G02*
X81928900Y-116450000I-71100J0D01*
G01*
X80571100Y-116450000D01*
G75*
G02*
X80500000Y-116378900I0J71100D01*
G01*
G37*
G36*
G01*
X80500000Y-114878900D02*
X80500000Y-114121100D01*
G75*
G02*
X80571100Y-114050000I71100J0D01*
G01*
X81928900Y-114050000D01*
G75*
G02*
X82000000Y-114121100I0J-71100D01*
G01*
X82000000Y-114878900D01*
G75*
G02*
X81928900Y-114950000I-71100J0D01*
G01*
X80571100Y-114950000D01*
G75*
G02*
X80500000Y-114878900I0J71100D01*
G01*
G37*
G36*
G01*
X80500000Y-113378900D02*
X80500000Y-112621100D01*
G75*
G02*
X80571100Y-112550000I71100J0D01*
G01*
X81928900Y-112550000D01*
G75*
G02*
X82000000Y-112621100I0J-71100D01*
G01*
X82000000Y-113378900D01*
G75*
G02*
X81928900Y-113450000I-71100J0D01*
G01*
X80571100Y-113450000D01*
G75*
G02*
X80500000Y-113378900I0J71100D01*
G01*
G37*
G36*
G01*
X80500000Y-111878900D02*
X80500000Y-111121100D01*
G75*
G02*
X80571100Y-111050000I71100J0D01*
G01*
X81928900Y-111050000D01*
G75*
G02*
X82000000Y-111121100I0J-71100D01*
G01*
X82000000Y-111878900D01*
G75*
G02*
X81928900Y-111950000I-71100J0D01*
G01*
X80571100Y-111950000D01*
G75*
G02*
X80500000Y-111878900I0J71100D01*
G01*
G37*
G36*
G01*
X80500000Y-110378900D02*
X80500000Y-109621100D01*
G75*
G02*
X80571100Y-109550000I71100J0D01*
G01*
X81928900Y-109550000D01*
G75*
G02*
X82000000Y-109621100I0J-71100D01*
G01*
X82000000Y-110378900D01*
G75*
G02*
X81928900Y-110450000I-71100J0D01*
G01*
X80571100Y-110450000D01*
G75*
G02*
X80500000Y-110378900I0J71100D01*
G01*
G37*
G36*
G01*
X80500000Y-108878900D02*
X80500000Y-108121100D01*
G75*
G02*
X80571100Y-108050000I71100J0D01*
G01*
X81928900Y-108050000D01*
G75*
G02*
X82000000Y-108121100I0J-71100D01*
G01*
X82000000Y-108878900D01*
G75*
G02*
X81928900Y-108950000I-71100J0D01*
G01*
X80571100Y-108950000D01*
G75*
G02*
X80500000Y-108878900I0J71100D01*
G01*
G37*
G36*
G01*
X80500000Y-107378900D02*
X80500000Y-106621100D01*
G75*
G02*
X80571100Y-106550000I71100J0D01*
G01*
X81928900Y-106550000D01*
G75*
G02*
X82000000Y-106621100I0J-71100D01*
G01*
X82000000Y-107378900D01*
G75*
G02*
X81928900Y-107450000I-71100J0D01*
G01*
X80571100Y-107450000D01*
G75*
G02*
X80500000Y-107378900I0J71100D01*
G01*
G37*
G36*
G01*
X80500000Y-105878900D02*
X80500000Y-105121100D01*
G75*
G02*
X80571100Y-105050000I71100J0D01*
G01*
X81928900Y-105050000D01*
G75*
G02*
X82000000Y-105121100I0J-71100D01*
G01*
X82000000Y-105878900D01*
G75*
G02*
X81928900Y-105950000I-71100J0D01*
G01*
X80571100Y-105950000D01*
G75*
G02*
X80500000Y-105878900I0J71100D01*
G01*
G37*
G36*
G01*
X80500000Y-104378900D02*
X80500000Y-103621100D01*
G75*
G02*
X80571100Y-103550000I71100J0D01*
G01*
X81928900Y-103550000D01*
G75*
G02*
X82000000Y-103621100I0J-71100D01*
G01*
X82000000Y-104378900D01*
G75*
G02*
X81928900Y-104450000I-71100J0D01*
G01*
X80571100Y-104450000D01*
G75*
G02*
X80500000Y-104378900I0J71100D01*
G01*
G37*
G36*
G01*
X81621100Y-101250000D02*
X82378900Y-101250000D01*
G75*
G02*
X82450000Y-101321100I0J-71100D01*
G01*
X82450000Y-102678900D01*
G75*
G02*
X82378900Y-102750000I-71100J0D01*
G01*
X81621100Y-102750000D01*
G75*
G02*
X81550000Y-102678900I0J71100D01*
G01*
X81550000Y-101321100D01*
G75*
G02*
X81621100Y-101250000I71100J0D01*
G01*
G37*
G36*
G01*
X83121100Y-101250000D02*
X83878900Y-101250000D01*
G75*
G02*
X83950000Y-101321100I0J-71100D01*
G01*
X83950000Y-102678900D01*
G75*
G02*
X83878900Y-102750000I-71100J0D01*
G01*
X83121100Y-102750000D01*
G75*
G02*
X83050000Y-102678900I0J71100D01*
G01*
X83050000Y-101321100D01*
G75*
G02*
X83121100Y-101250000I71100J0D01*
G01*
G37*
G36*
G01*
X84621100Y-101250000D02*
X85378900Y-101250000D01*
G75*
G02*
X85450000Y-101321100I0J-71100D01*
G01*
X85450000Y-102678900D01*
G75*
G02*
X85378900Y-102750000I-71100J0D01*
G01*
X84621100Y-102750000D01*
G75*
G02*
X84550000Y-102678900I0J71100D01*
G01*
X84550000Y-101321100D01*
G75*
G02*
X84621100Y-101250000I71100J0D01*
G01*
G37*
G36*
G01*
X86121100Y-101250000D02*
X86878900Y-101250000D01*
G75*
G02*
X86950000Y-101321100I0J-71100D01*
G01*
X86950000Y-102678900D01*
G75*
G02*
X86878900Y-102750000I-71100J0D01*
G01*
X86121100Y-102750000D01*
G75*
G02*
X86050000Y-102678900I0J71100D01*
G01*
X86050000Y-101321100D01*
G75*
G02*
X86121100Y-101250000I71100J0D01*
G01*
G37*
G36*
G01*
X87621100Y-101250000D02*
X88378900Y-101250000D01*
G75*
G02*
X88450000Y-101321100I0J-71100D01*
G01*
X88450000Y-102678900D01*
G75*
G02*
X88378900Y-102750000I-71100J0D01*
G01*
X87621100Y-102750000D01*
G75*
G02*
X87550000Y-102678900I0J71100D01*
G01*
X87550000Y-101321100D01*
G75*
G02*
X87621100Y-101250000I71100J0D01*
G01*
G37*
G36*
G01*
X89121100Y-101250000D02*
X89878900Y-101250000D01*
G75*
G02*
X89950000Y-101321100I0J-71100D01*
G01*
X89950000Y-102678900D01*
G75*
G02*
X89878900Y-102750000I-71100J0D01*
G01*
X89121100Y-102750000D01*
G75*
G02*
X89050000Y-102678900I0J71100D01*
G01*
X89050000Y-101321100D01*
G75*
G02*
X89121100Y-101250000I71100J0D01*
G01*
G37*
G36*
G01*
X90621100Y-101250000D02*
X91378900Y-101250000D01*
G75*
G02*
X91450000Y-101321100I0J-71100D01*
G01*
X91450000Y-102678900D01*
G75*
G02*
X91378900Y-102750000I-71100J0D01*
G01*
X90621100Y-102750000D01*
G75*
G02*
X90550000Y-102678900I0J71100D01*
G01*
X90550000Y-101321100D01*
G75*
G02*
X90621100Y-101250000I71100J0D01*
G01*
G37*
G36*
G01*
X92121100Y-101250000D02*
X92878900Y-101250000D01*
G75*
G02*
X92950000Y-101321100I0J-71100D01*
G01*
X92950000Y-102678900D01*
G75*
G02*
X92878900Y-102750000I-71100J0D01*
G01*
X92121100Y-102750000D01*
G75*
G02*
X92050000Y-102678900I0J71100D01*
G01*
X92050000Y-101321100D01*
G75*
G02*
X92121100Y-101250000I71100J0D01*
G01*
G37*
G36*
G01*
X93621100Y-101250000D02*
X94378900Y-101250000D01*
G75*
G02*
X94450000Y-101321100I0J-71100D01*
G01*
X94450000Y-102678900D01*
G75*
G02*
X94378900Y-102750000I-71100J0D01*
G01*
X93621100Y-102750000D01*
G75*
G02*
X93550000Y-102678900I0J71100D01*
G01*
X93550000Y-101321100D01*
G75*
G02*
X93621100Y-101250000I71100J0D01*
G01*
G37*
G36*
G01*
X95121100Y-101250000D02*
X95878900Y-101250000D01*
G75*
G02*
X95950000Y-101321100I0J-71100D01*
G01*
X95950000Y-102678900D01*
G75*
G02*
X95878900Y-102750000I-71100J0D01*
G01*
X95121100Y-102750000D01*
G75*
G02*
X95050000Y-102678900I0J71100D01*
G01*
X95050000Y-101321100D01*
G75*
G02*
X95121100Y-101250000I71100J0D01*
G01*
G37*
G36*
G01*
X96621100Y-101250000D02*
X97378900Y-101250000D01*
G75*
G02*
X97450000Y-101321100I0J-71100D01*
G01*
X97450000Y-102678900D01*
G75*
G02*
X97378900Y-102750000I-71100J0D01*
G01*
X96621100Y-102750000D01*
G75*
G02*
X96550000Y-102678900I0J71100D01*
G01*
X96550000Y-101321100D01*
G75*
G02*
X96621100Y-101250000I71100J0D01*
G01*
G37*
G36*
G01*
X98121100Y-101250000D02*
X98878900Y-101250000D01*
G75*
G02*
X98950000Y-101321100I0J-71100D01*
G01*
X98950000Y-102678900D01*
G75*
G02*
X98878900Y-102750000I-71100J0D01*
G01*
X98121100Y-102750000D01*
G75*
G02*
X98050000Y-102678900I0J71100D01*
G01*
X98050000Y-101321100D01*
G75*
G02*
X98121100Y-101250000I71100J0D01*
G01*
G37*
G36*
G01*
X99621100Y-101250000D02*
X100378900Y-101250000D01*
G75*
G02*
X100450000Y-101321100I0J-71100D01*
G01*
X100450000Y-102678900D01*
G75*
G02*
X100378900Y-102750000I-71100J0D01*
G01*
X99621100Y-102750000D01*
G75*
G02*
X99550000Y-102678900I0J71100D01*
G01*
X99550000Y-101321100D01*
G75*
G02*
X99621100Y-101250000I71100J0D01*
G01*
G37*
G36*
G01*
X101121100Y-101250000D02*
X101878900Y-101250000D01*
G75*
G02*
X101950000Y-101321100I0J-71100D01*
G01*
X101950000Y-102678900D01*
G75*
G02*
X101878900Y-102750000I-71100J0D01*
G01*
X101121100Y-102750000D01*
G75*
G02*
X101050000Y-102678900I0J71100D01*
G01*
X101050000Y-101321100D01*
G75*
G02*
X101121100Y-101250000I71100J0D01*
G01*
G37*
G36*
G01*
X102621100Y-101250000D02*
X103378900Y-101250000D01*
G75*
G02*
X103450000Y-101321100I0J-71100D01*
G01*
X103450000Y-102678900D01*
G75*
G02*
X103378900Y-102750000I-71100J0D01*
G01*
X102621100Y-102750000D01*
G75*
G02*
X102550000Y-102678900I0J71100D01*
G01*
X102550000Y-101321100D01*
G75*
G02*
X102621100Y-101250000I71100J0D01*
G01*
G37*
G36*
G01*
X104121100Y-101250000D02*
X104878900Y-101250000D01*
G75*
G02*
X104950000Y-101321100I0J-71100D01*
G01*
X104950000Y-102678900D01*
G75*
G02*
X104878900Y-102750000I-71100J0D01*
G01*
X104121100Y-102750000D01*
G75*
G02*
X104050000Y-102678900I0J71100D01*
G01*
X104050000Y-101321100D01*
G75*
G02*
X104121100Y-101250000I71100J0D01*
G01*
G37*
G36*
G01*
X92775000Y-90775000D02*
X94025000Y-90775000D01*
G75*
G02*
X94275000Y-91025000I0J-250000D01*
G01*
X94275000Y-91775000D01*
G75*
G02*
X94025000Y-92025000I-250000J0D01*
G01*
X92775000Y-92025000D01*
G75*
G02*
X92525000Y-91775000I0J250000D01*
G01*
X92525000Y-91025000D01*
G75*
G02*
X92775000Y-90775000I250000J0D01*
G01*
G37*
G36*
G01*
X92775000Y-87975000D02*
X94025000Y-87975000D01*
G75*
G02*
X94275000Y-88225000I0J-250000D01*
G01*
X94275000Y-88975000D01*
G75*
G02*
X94025000Y-89225000I-250000J0D01*
G01*
X92775000Y-89225000D01*
G75*
G02*
X92525000Y-88975000I0J250000D01*
G01*
X92525000Y-88225000D01*
G75*
G02*
X92775000Y-87975000I250000J0D01*
G01*
G37*
G36*
G01*
X83775000Y-90975000D02*
X85025000Y-90975000D01*
G75*
G02*
X85275000Y-91225000I0J-250000D01*
G01*
X85275000Y-91975000D01*
G75*
G02*
X85025000Y-92225000I-250000J0D01*
G01*
X83775000Y-92225000D01*
G75*
G02*
X83525000Y-91975000I0J250000D01*
G01*
X83525000Y-91225000D01*
G75*
G02*
X83775000Y-90975000I250000J0D01*
G01*
G37*
G36*
G01*
X83775000Y-88175000D02*
X85025000Y-88175000D01*
G75*
G02*
X85275000Y-88425000I0J-250000D01*
G01*
X85275000Y-89175000D01*
G75*
G02*
X85025000Y-89425000I-250000J0D01*
G01*
X83775000Y-89425000D01*
G75*
G02*
X83525000Y-89175000I0J250000D01*
G01*
X83525000Y-88425000D01*
G75*
G02*
X83775000Y-88175000I250000J0D01*
G01*
G37*
G36*
G01*
X92775000Y-83975000D02*
X94025000Y-83975000D01*
G75*
G02*
X94275000Y-84225000I0J-250000D01*
G01*
X94275000Y-84975000D01*
G75*
G02*
X94025000Y-85225000I-250000J0D01*
G01*
X92775000Y-85225000D01*
G75*
G02*
X92525000Y-84975000I0J250000D01*
G01*
X92525000Y-84225000D01*
G75*
G02*
X92775000Y-83975000I250000J0D01*
G01*
G37*
G36*
G01*
X92775000Y-81175000D02*
X94025000Y-81175000D01*
G75*
G02*
X94275000Y-81425000I0J-250000D01*
G01*
X94275000Y-82175000D01*
G75*
G02*
X94025000Y-82425000I-250000J0D01*
G01*
X92775000Y-82425000D01*
G75*
G02*
X92525000Y-82175000I0J250000D01*
G01*
X92525000Y-81425000D01*
G75*
G02*
X92775000Y-81175000I250000J0D01*
G01*
G37*
G36*
G01*
X83775000Y-83775000D02*
X85025000Y-83775000D01*
G75*
G02*
X85275000Y-84025000I0J-250000D01*
G01*
X85275000Y-84775000D01*
G75*
G02*
X85025000Y-85025000I-250000J0D01*
G01*
X83775000Y-85025000D01*
G75*
G02*
X83525000Y-84775000I0J250000D01*
G01*
X83525000Y-84025000D01*
G75*
G02*
X83775000Y-83775000I250000J0D01*
G01*
G37*
G36*
G01*
X83775000Y-80975000D02*
X85025000Y-80975000D01*
G75*
G02*
X85275000Y-81225000I0J-250000D01*
G01*
X85275000Y-81975000D01*
G75*
G02*
X85025000Y-82225000I-250000J0D01*
G01*
X83775000Y-82225000D01*
G75*
G02*
X83525000Y-81975000I0J250000D01*
G01*
X83525000Y-81225000D01*
G75*
G02*
X83775000Y-80975000I250000J0D01*
G01*
G37*
D21*
X90200000Y-90000000D03*
X88200000Y-90950000D03*
X88200000Y-89050000D03*
X90200000Y-83000000D03*
X88200000Y-83950000D03*
X88200000Y-82050000D03*
G36*
G01*
X72450000Y-92375000D02*
X72350000Y-92375000D01*
G75*
G02*
X72300000Y-92325000I0J50000D01*
G01*
X72300000Y-91875000D01*
G75*
G02*
X72350000Y-91825000I50000J0D01*
G01*
X72450000Y-91825000D01*
G75*
G02*
X72500000Y-91875000I0J-50000D01*
G01*
X72500000Y-92325000D01*
G75*
G02*
X72450000Y-92375000I-50000J0D01*
G01*
G37*
G36*
G01*
X72850000Y-92375000D02*
X72750000Y-92375000D01*
G75*
G02*
X72700000Y-92325000I0J50000D01*
G01*
X72700000Y-91875000D01*
G75*
G02*
X72750000Y-91825000I50000J0D01*
G01*
X72850000Y-91825000D01*
G75*
G02*
X72900000Y-91875000I0J-50000D01*
G01*
X72900000Y-92325000D01*
G75*
G02*
X72850000Y-92375000I-50000J0D01*
G01*
G37*
G36*
G01*
X73250000Y-92375000D02*
X73150000Y-92375000D01*
G75*
G02*
X73100000Y-92325000I0J50000D01*
G01*
X73100000Y-91875000D01*
G75*
G02*
X73150000Y-91825000I50000J0D01*
G01*
X73250000Y-91825000D01*
G75*
G02*
X73300000Y-91875000I0J-50000D01*
G01*
X73300000Y-92325000D01*
G75*
G02*
X73250000Y-92375000I-50000J0D01*
G01*
G37*
G36*
G01*
X73650000Y-92375000D02*
X73550000Y-92375000D01*
G75*
G02*
X73500000Y-92325000I0J50000D01*
G01*
X73500000Y-91875000D01*
G75*
G02*
X73550000Y-91825000I50000J0D01*
G01*
X73650000Y-91825000D01*
G75*
G02*
X73700000Y-91875000I0J-50000D01*
G01*
X73700000Y-92325000D01*
G75*
G02*
X73650000Y-92375000I-50000J0D01*
G01*
G37*
G36*
G01*
X74050000Y-92375000D02*
X73950000Y-92375000D01*
G75*
G02*
X73900000Y-92325000I0J50000D01*
G01*
X73900000Y-91875000D01*
G75*
G02*
X73950000Y-91825000I50000J0D01*
G01*
X74050000Y-91825000D01*
G75*
G02*
X74100000Y-91875000I0J-50000D01*
G01*
X74100000Y-92325000D01*
G75*
G02*
X74050000Y-92375000I-50000J0D01*
G01*
G37*
G36*
G01*
X74450000Y-92375000D02*
X74350000Y-92375000D01*
G75*
G02*
X74300000Y-92325000I0J50000D01*
G01*
X74300000Y-91875000D01*
G75*
G02*
X74350000Y-91825000I50000J0D01*
G01*
X74450000Y-91825000D01*
G75*
G02*
X74500000Y-91875000I0J-50000D01*
G01*
X74500000Y-92325000D01*
G75*
G02*
X74450000Y-92375000I-50000J0D01*
G01*
G37*
G36*
G01*
X74625000Y-92650000D02*
X74625000Y-92550000D01*
G75*
G02*
X74675000Y-92500000I50000J0D01*
G01*
X75125000Y-92500000D01*
G75*
G02*
X75175000Y-92550000I0J-50000D01*
G01*
X75175000Y-92650000D01*
G75*
G02*
X75125000Y-92700000I-50000J0D01*
G01*
X74675000Y-92700000D01*
G75*
G02*
X74625000Y-92650000I0J50000D01*
G01*
G37*
G36*
G01*
X74625000Y-93050000D02*
X74625000Y-92950000D01*
G75*
G02*
X74675000Y-92900000I50000J0D01*
G01*
X75125000Y-92900000D01*
G75*
G02*
X75175000Y-92950000I0J-50000D01*
G01*
X75175000Y-93050000D01*
G75*
G02*
X75125000Y-93100000I-50000J0D01*
G01*
X74675000Y-93100000D01*
G75*
G02*
X74625000Y-93050000I0J50000D01*
G01*
G37*
G36*
G01*
X74625000Y-93450000D02*
X74625000Y-93350000D01*
G75*
G02*
X74675000Y-93300000I50000J0D01*
G01*
X75125000Y-93300000D01*
G75*
G02*
X75175000Y-93350000I0J-50000D01*
G01*
X75175000Y-93450000D01*
G75*
G02*
X75125000Y-93500000I-50000J0D01*
G01*
X74675000Y-93500000D01*
G75*
G02*
X74625000Y-93450000I0J50000D01*
G01*
G37*
G36*
G01*
X74625000Y-93850000D02*
X74625000Y-93750000D01*
G75*
G02*
X74675000Y-93700000I50000J0D01*
G01*
X75125000Y-93700000D01*
G75*
G02*
X75175000Y-93750000I0J-50000D01*
G01*
X75175000Y-93850000D01*
G75*
G02*
X75125000Y-93900000I-50000J0D01*
G01*
X74675000Y-93900000D01*
G75*
G02*
X74625000Y-93850000I0J50000D01*
G01*
G37*
G36*
G01*
X74625000Y-94250000D02*
X74625000Y-94150000D01*
G75*
G02*
X74675000Y-94100000I50000J0D01*
G01*
X75125000Y-94100000D01*
G75*
G02*
X75175000Y-94150000I0J-50000D01*
G01*
X75175000Y-94250000D01*
G75*
G02*
X75125000Y-94300000I-50000J0D01*
G01*
X74675000Y-94300000D01*
G75*
G02*
X74625000Y-94250000I0J50000D01*
G01*
G37*
G36*
G01*
X74625000Y-94650000D02*
X74625000Y-94550000D01*
G75*
G02*
X74675000Y-94500000I50000J0D01*
G01*
X75125000Y-94500000D01*
G75*
G02*
X75175000Y-94550000I0J-50000D01*
G01*
X75175000Y-94650000D01*
G75*
G02*
X75125000Y-94700000I-50000J0D01*
G01*
X74675000Y-94700000D01*
G75*
G02*
X74625000Y-94650000I0J50000D01*
G01*
G37*
G36*
G01*
X74450000Y-95375000D02*
X74350000Y-95375000D01*
G75*
G02*
X74300000Y-95325000I0J50000D01*
G01*
X74300000Y-94875000D01*
G75*
G02*
X74350000Y-94825000I50000J0D01*
G01*
X74450000Y-94825000D01*
G75*
G02*
X74500000Y-94875000I0J-50000D01*
G01*
X74500000Y-95325000D01*
G75*
G02*
X74450000Y-95375000I-50000J0D01*
G01*
G37*
G36*
G01*
X74050000Y-95375000D02*
X73950000Y-95375000D01*
G75*
G02*
X73900000Y-95325000I0J50000D01*
G01*
X73900000Y-94875000D01*
G75*
G02*
X73950000Y-94825000I50000J0D01*
G01*
X74050000Y-94825000D01*
G75*
G02*
X74100000Y-94875000I0J-50000D01*
G01*
X74100000Y-95325000D01*
G75*
G02*
X74050000Y-95375000I-50000J0D01*
G01*
G37*
G36*
G01*
X73650000Y-95375000D02*
X73550000Y-95375000D01*
G75*
G02*
X73500000Y-95325000I0J50000D01*
G01*
X73500000Y-94875000D01*
G75*
G02*
X73550000Y-94825000I50000J0D01*
G01*
X73650000Y-94825000D01*
G75*
G02*
X73700000Y-94875000I0J-50000D01*
G01*
X73700000Y-95325000D01*
G75*
G02*
X73650000Y-95375000I-50000J0D01*
G01*
G37*
G36*
G01*
X73250000Y-95375000D02*
X73150000Y-95375000D01*
G75*
G02*
X73100000Y-95325000I0J50000D01*
G01*
X73100000Y-94875000D01*
G75*
G02*
X73150000Y-94825000I50000J0D01*
G01*
X73250000Y-94825000D01*
G75*
G02*
X73300000Y-94875000I0J-50000D01*
G01*
X73300000Y-95325000D01*
G75*
G02*
X73250000Y-95375000I-50000J0D01*
G01*
G37*
G36*
G01*
X72850000Y-95375000D02*
X72750000Y-95375000D01*
G75*
G02*
X72700000Y-95325000I0J50000D01*
G01*
X72700000Y-94875000D01*
G75*
G02*
X72750000Y-94825000I50000J0D01*
G01*
X72850000Y-94825000D01*
G75*
G02*
X72900000Y-94875000I0J-50000D01*
G01*
X72900000Y-95325000D01*
G75*
G02*
X72850000Y-95375000I-50000J0D01*
G01*
G37*
G36*
G01*
X72450000Y-95375000D02*
X72350000Y-95375000D01*
G75*
G02*
X72300000Y-95325000I0J50000D01*
G01*
X72300000Y-94875000D01*
G75*
G02*
X72350000Y-94825000I50000J0D01*
G01*
X72450000Y-94825000D01*
G75*
G02*
X72500000Y-94875000I0J-50000D01*
G01*
X72500000Y-95325000D01*
G75*
G02*
X72450000Y-95375000I-50000J0D01*
G01*
G37*
G36*
G01*
X71625000Y-94650000D02*
X71625000Y-94550000D01*
G75*
G02*
X71675000Y-94500000I50000J0D01*
G01*
X72125000Y-94500000D01*
G75*
G02*
X72175000Y-94550000I0J-50000D01*
G01*
X72175000Y-94650000D01*
G75*
G02*
X72125000Y-94700000I-50000J0D01*
G01*
X71675000Y-94700000D01*
G75*
G02*
X71625000Y-94650000I0J50000D01*
G01*
G37*
G36*
G01*
X71625000Y-94250000D02*
X71625000Y-94150000D01*
G75*
G02*
X71675000Y-94100000I50000J0D01*
G01*
X72125000Y-94100000D01*
G75*
G02*
X72175000Y-94150000I0J-50000D01*
G01*
X72175000Y-94250000D01*
G75*
G02*
X72125000Y-94300000I-50000J0D01*
G01*
X71675000Y-94300000D01*
G75*
G02*
X71625000Y-94250000I0J50000D01*
G01*
G37*
G36*
G01*
X71625000Y-93850000D02*
X71625000Y-93750000D01*
G75*
G02*
X71675000Y-93700000I50000J0D01*
G01*
X72125000Y-93700000D01*
G75*
G02*
X72175000Y-93750000I0J-50000D01*
G01*
X72175000Y-93850000D01*
G75*
G02*
X72125000Y-93900000I-50000J0D01*
G01*
X71675000Y-93900000D01*
G75*
G02*
X71625000Y-93850000I0J50000D01*
G01*
G37*
G36*
G01*
X71625000Y-93450000D02*
X71625000Y-93350000D01*
G75*
G02*
X71675000Y-93300000I50000J0D01*
G01*
X72125000Y-93300000D01*
G75*
G02*
X72175000Y-93350000I0J-50000D01*
G01*
X72175000Y-93450000D01*
G75*
G02*
X72125000Y-93500000I-50000J0D01*
G01*
X71675000Y-93500000D01*
G75*
G02*
X71625000Y-93450000I0J50000D01*
G01*
G37*
G36*
G01*
X71625000Y-93050000D02*
X71625000Y-92950000D01*
G75*
G02*
X71675000Y-92900000I50000J0D01*
G01*
X72125000Y-92900000D01*
G75*
G02*
X72175000Y-92950000I0J-50000D01*
G01*
X72175000Y-93050000D01*
G75*
G02*
X72125000Y-93100000I-50000J0D01*
G01*
X71675000Y-93100000D01*
G75*
G02*
X71625000Y-93050000I0J50000D01*
G01*
G37*
G36*
G01*
X71625000Y-92650000D02*
X71625000Y-92550000D01*
G75*
G02*
X71675000Y-92500000I50000J0D01*
G01*
X72125000Y-92500000D01*
G75*
G02*
X72175000Y-92550000I0J-50000D01*
G01*
X72175000Y-92650000D01*
G75*
G02*
X72125000Y-92700000I-50000J0D01*
G01*
X71675000Y-92700000D01*
G75*
G02*
X71625000Y-92650000I0J50000D01*
G01*
G37*
D22*
X59400000Y-121900000D03*
X64000000Y-121900000D03*
X61700000Y-121900000D03*
D23*
X61700000Y-115600000D03*
D16*
X68200000Y-121700000D03*
G36*
G01*
X63725000Y-127125000D02*
X64975000Y-127125000D01*
G75*
G02*
X65225000Y-127375000I0J-250000D01*
G01*
X65225000Y-128125000D01*
G75*
G02*
X64975000Y-128375000I-250000J0D01*
G01*
X63725000Y-128375000D01*
G75*
G02*
X63475000Y-128125000I0J250000D01*
G01*
X63475000Y-127375000D01*
G75*
G02*
X63725000Y-127125000I250000J0D01*
G01*
G37*
G36*
G01*
X63725000Y-124325000D02*
X64975000Y-124325000D01*
G75*
G02*
X65225000Y-124575000I0J-250000D01*
G01*
X65225000Y-125325000D01*
G75*
G02*
X64975000Y-125575000I-250000J0D01*
G01*
X63725000Y-125575000D01*
G75*
G02*
X63475000Y-125325000I0J250000D01*
G01*
X63475000Y-124575000D01*
G75*
G02*
X63725000Y-124325000I250000J0D01*
G01*
G37*
G36*
G01*
X55975000Y-127175000D02*
X57225000Y-127175000D01*
G75*
G02*
X57475000Y-127425000I0J-250000D01*
G01*
X57475000Y-128175000D01*
G75*
G02*
X57225000Y-128425000I-250000J0D01*
G01*
X55975000Y-128425000D01*
G75*
G02*
X55725000Y-128175000I0J250000D01*
G01*
X55725000Y-127425000D01*
G75*
G02*
X55975000Y-127175000I250000J0D01*
G01*
G37*
G36*
G01*
X55975000Y-124375000D02*
X57225000Y-124375000D01*
G75*
G02*
X57475000Y-124625000I0J-250000D01*
G01*
X57475000Y-125375000D01*
G75*
G02*
X57225000Y-125625000I-250000J0D01*
G01*
X55975000Y-125625000D01*
G75*
G02*
X55725000Y-125375000I0J250000D01*
G01*
X55725000Y-124625000D01*
G75*
G02*
X55975000Y-124375000I250000J0D01*
G01*
G37*
G36*
G01*
X67575000Y-125575000D02*
X66325000Y-125575000D01*
G75*
G02*
X66075000Y-125325000I0J250000D01*
G01*
X66075000Y-124575000D01*
G75*
G02*
X66325000Y-124325000I250000J0D01*
G01*
X67575000Y-124325000D01*
G75*
G02*
X67825000Y-124575000I0J-250000D01*
G01*
X67825000Y-125325000D01*
G75*
G02*
X67575000Y-125575000I-250000J0D01*
G01*
G37*
G36*
G01*
X67575000Y-128375000D02*
X66325000Y-128375000D01*
G75*
G02*
X66075000Y-128125000I0J250000D01*
G01*
X66075000Y-127375000D01*
G75*
G02*
X66325000Y-127125000I250000J0D01*
G01*
X67575000Y-127125000D01*
G75*
G02*
X67825000Y-127375000I0J-250000D01*
G01*
X67825000Y-128125000D01*
G75*
G02*
X67575000Y-128375000I-250000J0D01*
G01*
G37*
G36*
G01*
X72975000Y-100375000D02*
X74225000Y-100375000D01*
G75*
G02*
X74475000Y-100625000I0J-250000D01*
G01*
X74475000Y-101375000D01*
G75*
G02*
X74225000Y-101625000I-250000J0D01*
G01*
X72975000Y-101625000D01*
G75*
G02*
X72725000Y-101375000I0J250000D01*
G01*
X72725000Y-100625000D01*
G75*
G02*
X72975000Y-100375000I250000J0D01*
G01*
G37*
G36*
G01*
X72975000Y-97575000D02*
X74225000Y-97575000D01*
G75*
G02*
X74475000Y-97825000I0J-250000D01*
G01*
X74475000Y-98575000D01*
G75*
G02*
X74225000Y-98825000I-250000J0D01*
G01*
X72975000Y-98825000D01*
G75*
G02*
X72725000Y-98575000I0J250000D01*
G01*
X72725000Y-97825000D01*
G75*
G02*
X72975000Y-97575000I250000J0D01*
G01*
G37*
G36*
G01*
X70375000Y-100375000D02*
X71625000Y-100375000D01*
G75*
G02*
X71875000Y-100625000I0J-250000D01*
G01*
X71875000Y-101375000D01*
G75*
G02*
X71625000Y-101625000I-250000J0D01*
G01*
X70375000Y-101625000D01*
G75*
G02*
X70125000Y-101375000I0J250000D01*
G01*
X70125000Y-100625000D01*
G75*
G02*
X70375000Y-100375000I250000J0D01*
G01*
G37*
G36*
G01*
X70375000Y-97575000D02*
X71625000Y-97575000D01*
G75*
G02*
X71875000Y-97825000I0J-250000D01*
G01*
X71875000Y-98575000D01*
G75*
G02*
X71625000Y-98825000I-250000J0D01*
G01*
X70375000Y-98825000D01*
G75*
G02*
X70125000Y-98575000I0J250000D01*
G01*
X70125000Y-97825000D01*
G75*
G02*
X70375000Y-97575000I250000J0D01*
G01*
G37*
G36*
G01*
X79375000Y-94025000D02*
X79375000Y-92775000D01*
G75*
G02*
X79625000Y-92525000I250000J0D01*
G01*
X80375000Y-92525000D01*
G75*
G02*
X80625000Y-92775000I0J-250000D01*
G01*
X80625000Y-94025000D01*
G75*
G02*
X80375000Y-94275000I-250000J0D01*
G01*
X79625000Y-94275000D01*
G75*
G02*
X79375000Y-94025000I0J250000D01*
G01*
G37*
G36*
G01*
X76575000Y-94025000D02*
X76575000Y-92775000D01*
G75*
G02*
X76825000Y-92525000I250000J0D01*
G01*
X77575000Y-92525000D01*
G75*
G02*
X77825000Y-92775000I0J-250000D01*
G01*
X77825000Y-94025000D01*
G75*
G02*
X77575000Y-94275000I-250000J0D01*
G01*
X76825000Y-94275000D01*
G75*
G02*
X76575000Y-94025000I0J250000D01*
G01*
G37*
G36*
G01*
X61075000Y-127125000D02*
X62325000Y-127125000D01*
G75*
G02*
X62575000Y-127375000I0J-250000D01*
G01*
X62575000Y-128125000D01*
G75*
G02*
X62325000Y-128375000I-250000J0D01*
G01*
X61075000Y-128375000D01*
G75*
G02*
X60825000Y-128125000I0J250000D01*
G01*
X60825000Y-127375000D01*
G75*
G02*
X61075000Y-127125000I250000J0D01*
G01*
G37*
G36*
G01*
X61075000Y-124325000D02*
X62325000Y-124325000D01*
G75*
G02*
X62575000Y-124575000I0J-250000D01*
G01*
X62575000Y-125325000D01*
G75*
G02*
X62325000Y-125575000I-250000J0D01*
G01*
X61075000Y-125575000D01*
G75*
G02*
X60825000Y-125325000I0J250000D01*
G01*
X60825000Y-124575000D01*
G75*
G02*
X61075000Y-124325000I250000J0D01*
G01*
G37*
G36*
G01*
X59625001Y-125750000D02*
X58774999Y-125750000D01*
G75*
G02*
X58525000Y-125500001I0J249999D01*
G01*
X58525000Y-124599999D01*
G75*
G02*
X58774999Y-124350000I249999J0D01*
G01*
X59625001Y-124350000D01*
G75*
G02*
X59875000Y-124599999I0J-249999D01*
G01*
X59875000Y-125500001D01*
G75*
G02*
X59625001Y-125750000I-249999J0D01*
G01*
G37*
G36*
G01*
X59625001Y-128450000D02*
X58774999Y-128450000D01*
G75*
G02*
X58525000Y-128200001I0J249999D01*
G01*
X58525000Y-127299999D01*
G75*
G02*
X58774999Y-127050000I249999J0D01*
G01*
X59625001Y-127050000D01*
G75*
G02*
X59875000Y-127299999I0J-249999D01*
G01*
X59875000Y-128200001D01*
G75*
G02*
X59625001Y-128450000I-249999J0D01*
G01*
G37*
G36*
G01*
X57025001Y-120450000D02*
X56174999Y-120450000D01*
G75*
G02*
X55925000Y-120200001I0J249999D01*
G01*
X55925000Y-119299999D01*
G75*
G02*
X56174999Y-119050000I249999J0D01*
G01*
X57025001Y-119050000D01*
G75*
G02*
X57275000Y-119299999I0J-249999D01*
G01*
X57275000Y-120200001D01*
G75*
G02*
X57025001Y-120450000I-249999J0D01*
G01*
G37*
G36*
G01*
X57025001Y-123150000D02*
X56174999Y-123150000D01*
G75*
G02*
X55925000Y-122900001I0J249999D01*
G01*
X55925000Y-121999999D01*
G75*
G02*
X56174999Y-121750000I249999J0D01*
G01*
X57025001Y-121750000D01*
G75*
G02*
X57275000Y-121999999I0J-249999D01*
G01*
X57275000Y-122900001D01*
G75*
G02*
X57025001Y-123150000I-249999J0D01*
G01*
G37*
D24*
X87350000Y-133050000D03*
X93150000Y-133050000D03*
X87350000Y-137050000D03*
X93150000Y-137050000D03*
X99050000Y-132950000D03*
X104850000Y-132950000D03*
X99050000Y-136950000D03*
X104850000Y-136950000D03*
D25*
X111290000Y-78900000D03*
X111290000Y-79700000D03*
X111290000Y-78900000D03*
X111290000Y-79700000D03*
X111290000Y-85300000D03*
X111290000Y-85300000D03*
X111290000Y-84500000D03*
X111290000Y-84500000D03*
D26*
X112350000Y-84990000D03*
X112350000Y-79210000D03*
D27*
X111290000Y-80350000D03*
X111290000Y-81350000D03*
X111290000Y-80850000D03*
X111290000Y-83350000D03*
X111290000Y-83850000D03*
X111290000Y-81850000D03*
X111290000Y-82350000D03*
X111290000Y-82850000D03*
D28*
X116040000Y-77780000D03*
X116040000Y-86420000D03*
D29*
X111870000Y-77780000D03*
X111870000Y-86420000D03*
D30*
X114750000Y-130200000D03*
X114750000Y-127000000D03*
X109850000Y-130200000D03*
X109850000Y-127000000D03*
D16*
X111500000Y-91300000D03*
G36*
G01*
X85375000Y-128075000D02*
X86625000Y-128075000D01*
G75*
G02*
X86875000Y-128325000I0J-250000D01*
G01*
X86875000Y-129075000D01*
G75*
G02*
X86625000Y-129325000I-250000J0D01*
G01*
X85375000Y-129325000D01*
G75*
G02*
X85125000Y-129075000I0J250000D01*
G01*
X85125000Y-128325000D01*
G75*
G02*
X85375000Y-128075000I250000J0D01*
G01*
G37*
G36*
G01*
X85375000Y-125275000D02*
X86625000Y-125275000D01*
G75*
G02*
X86875000Y-125525000I0J-250000D01*
G01*
X86875000Y-126275000D01*
G75*
G02*
X86625000Y-126525000I-250000J0D01*
G01*
X85375000Y-126525000D01*
G75*
G02*
X85125000Y-126275000I0J250000D01*
G01*
X85125000Y-125525000D01*
G75*
G02*
X85375000Y-125275000I250000J0D01*
G01*
G37*
G36*
G01*
X87975000Y-128075000D02*
X89225000Y-128075000D01*
G75*
G02*
X89475000Y-128325000I0J-250000D01*
G01*
X89475000Y-129075000D01*
G75*
G02*
X89225000Y-129325000I-250000J0D01*
G01*
X87975000Y-129325000D01*
G75*
G02*
X87725000Y-129075000I0J250000D01*
G01*
X87725000Y-128325000D01*
G75*
G02*
X87975000Y-128075000I250000J0D01*
G01*
G37*
G36*
G01*
X87975000Y-125275000D02*
X89225000Y-125275000D01*
G75*
G02*
X89475000Y-125525000I0J-250000D01*
G01*
X89475000Y-126275000D01*
G75*
G02*
X89225000Y-126525000I-250000J0D01*
G01*
X87975000Y-126525000D01*
G75*
G02*
X87725000Y-126275000I0J250000D01*
G01*
X87725000Y-125525000D01*
G75*
G02*
X87975000Y-125275000I250000J0D01*
G01*
G37*
G36*
G01*
X84025000Y-126525000D02*
X82775000Y-126525000D01*
G75*
G02*
X82525000Y-126275000I0J250000D01*
G01*
X82525000Y-125525000D01*
G75*
G02*
X82775000Y-125275000I250000J0D01*
G01*
X84025000Y-125275000D01*
G75*
G02*
X84275000Y-125525000I0J-250000D01*
G01*
X84275000Y-126275000D01*
G75*
G02*
X84025000Y-126525000I-250000J0D01*
G01*
G37*
G36*
G01*
X84025000Y-129325000D02*
X82775000Y-129325000D01*
G75*
G02*
X82525000Y-129075000I0J250000D01*
G01*
X82525000Y-128325000D01*
G75*
G02*
X82775000Y-128075000I250000J0D01*
G01*
X84025000Y-128075000D01*
G75*
G02*
X84275000Y-128325000I0J-250000D01*
G01*
X84275000Y-129075000D01*
G75*
G02*
X84025000Y-129325000I-250000J0D01*
G01*
G37*
G36*
G01*
X81325000Y-126525000D02*
X80075000Y-126525000D01*
G75*
G02*
X79825000Y-126275000I0J250000D01*
G01*
X79825000Y-125525000D01*
G75*
G02*
X80075000Y-125275000I250000J0D01*
G01*
X81325000Y-125275000D01*
G75*
G02*
X81575000Y-125525000I0J-250000D01*
G01*
X81575000Y-126275000D01*
G75*
G02*
X81325000Y-126525000I-250000J0D01*
G01*
G37*
G36*
G01*
X81325000Y-129325000D02*
X80075000Y-129325000D01*
G75*
G02*
X79825000Y-129075000I0J250000D01*
G01*
X79825000Y-128325000D01*
G75*
G02*
X80075000Y-128075000I250000J0D01*
G01*
X81325000Y-128075000D01*
G75*
G02*
X81575000Y-128325000I0J-250000D01*
G01*
X81575000Y-129075000D01*
G75*
G02*
X81325000Y-129325000I-250000J0D01*
G01*
G37*
G36*
G01*
X105075000Y-81025000D02*
X105075000Y-79775000D01*
G75*
G02*
X105325000Y-79525000I250000J0D01*
G01*
X106075000Y-79525000D01*
G75*
G02*
X106325000Y-79775000I0J-250000D01*
G01*
X106325000Y-81025000D01*
G75*
G02*
X106075000Y-81275000I-250000J0D01*
G01*
X105325000Y-81275000D01*
G75*
G02*
X105075000Y-81025000I0J250000D01*
G01*
G37*
G36*
G01*
X102275000Y-81025000D02*
X102275000Y-79775000D01*
G75*
G02*
X102525000Y-79525000I250000J0D01*
G01*
X103275000Y-79525000D01*
G75*
G02*
X103525000Y-79775000I0J-250000D01*
G01*
X103525000Y-81025000D01*
G75*
G02*
X103275000Y-81275000I-250000J0D01*
G01*
X102525000Y-81275000D01*
G75*
G02*
X102275000Y-81025000I0J250000D01*
G01*
G37*
G36*
G01*
X105075000Y-83425000D02*
X105075000Y-82175000D01*
G75*
G02*
X105325000Y-81925000I250000J0D01*
G01*
X106075000Y-81925000D01*
G75*
G02*
X106325000Y-82175000I0J-250000D01*
G01*
X106325000Y-83425000D01*
G75*
G02*
X106075000Y-83675000I-250000J0D01*
G01*
X105325000Y-83675000D01*
G75*
G02*
X105075000Y-83425000I0J250000D01*
G01*
G37*
G36*
G01*
X102275000Y-83425000D02*
X102275000Y-82175000D01*
G75*
G02*
X102525000Y-81925000I250000J0D01*
G01*
X103275000Y-81925000D01*
G75*
G02*
X103525000Y-82175000I0J-250000D01*
G01*
X103525000Y-83425000D01*
G75*
G02*
X103275000Y-83675000I-250000J0D01*
G01*
X102525000Y-83675000D01*
G75*
G02*
X102275000Y-83425000I0J250000D01*
G01*
G37*
G36*
G01*
X103437500Y-84575000D02*
X103437500Y-85825000D01*
G75*
G02*
X103187500Y-86075000I-250000J0D01*
G01*
X102262500Y-86075000D01*
G75*
G02*
X102012500Y-85825000I0J250000D01*
G01*
X102012500Y-84575000D01*
G75*
G02*
X102262500Y-84325000I250000J0D01*
G01*
X103187500Y-84325000D01*
G75*
G02*
X103437500Y-84575000I0J-250000D01*
G01*
G37*
G36*
G01*
X106412500Y-84575000D02*
X106412500Y-85825000D01*
G75*
G02*
X106162500Y-86075000I-250000J0D01*
G01*
X105237500Y-86075000D01*
G75*
G02*
X104987500Y-85825000I0J250000D01*
G01*
X104987500Y-84575000D01*
G75*
G02*
X105237500Y-84325000I250000J0D01*
G01*
X106162500Y-84325000D01*
G75*
G02*
X106412500Y-84575000I0J-250000D01*
G01*
G37*
G36*
G01*
X103625000Y-94025000D02*
X102375000Y-94025000D01*
G75*
G02*
X102125000Y-93775000I0J250000D01*
G01*
X102125000Y-93025000D01*
G75*
G02*
X102375000Y-92775000I250000J0D01*
G01*
X103625000Y-92775000D01*
G75*
G02*
X103875000Y-93025000I0J-250000D01*
G01*
X103875000Y-93775000D01*
G75*
G02*
X103625000Y-94025000I-250000J0D01*
G01*
G37*
G36*
G01*
X103625000Y-96825000D02*
X102375000Y-96825000D01*
G75*
G02*
X102125000Y-96575000I0J250000D01*
G01*
X102125000Y-95825000D01*
G75*
G02*
X102375000Y-95575000I250000J0D01*
G01*
X103625000Y-95575000D01*
G75*
G02*
X103875000Y-95825000I0J-250000D01*
G01*
X103875000Y-96575000D01*
G75*
G02*
X103625000Y-96825000I-250000J0D01*
G01*
G37*
G36*
G01*
X101125000Y-94025000D02*
X99875000Y-94025000D01*
G75*
G02*
X99625000Y-93775000I0J250000D01*
G01*
X99625000Y-93025000D01*
G75*
G02*
X99875000Y-92775000I250000J0D01*
G01*
X101125000Y-92775000D01*
G75*
G02*
X101375000Y-93025000I0J-250000D01*
G01*
X101375000Y-93775000D01*
G75*
G02*
X101125000Y-94025000I-250000J0D01*
G01*
G37*
G36*
G01*
X101125000Y-96825000D02*
X99875000Y-96825000D01*
G75*
G02*
X99625000Y-96575000I0J250000D01*
G01*
X99625000Y-95825000D01*
G75*
G02*
X99875000Y-95575000I250000J0D01*
G01*
X101125000Y-95575000D01*
G75*
G02*
X101375000Y-95825000I0J-250000D01*
G01*
X101375000Y-96575000D01*
G75*
G02*
X101125000Y-96825000I-250000J0D01*
G01*
G37*
G36*
G01*
X34825001Y-125650000D02*
X33974999Y-125650000D01*
G75*
G02*
X33725000Y-125400001I0J249999D01*
G01*
X33725000Y-124499999D01*
G75*
G02*
X33974999Y-124250000I249999J0D01*
G01*
X34825001Y-124250000D01*
G75*
G02*
X35075000Y-124499999I0J-249999D01*
G01*
X35075000Y-125400001D01*
G75*
G02*
X34825001Y-125650000I-249999J0D01*
G01*
G37*
G36*
G01*
X34825001Y-128350000D02*
X33974999Y-128350000D01*
G75*
G02*
X33725000Y-128100001I0J249999D01*
G01*
X33725000Y-127199999D01*
G75*
G02*
X33974999Y-126950000I249999J0D01*
G01*
X34825001Y-126950000D01*
G75*
G02*
X35075000Y-127199999I0J-249999D01*
G01*
X35075000Y-128100001D01*
G75*
G02*
X34825001Y-128350000I-249999J0D01*
G01*
G37*
G36*
G01*
X31175000Y-121525000D02*
X32425000Y-121525000D01*
G75*
G02*
X32675000Y-121775000I0J-250000D01*
G01*
X32675000Y-122525000D01*
G75*
G02*
X32425000Y-122775000I-250000J0D01*
G01*
X31175000Y-122775000D01*
G75*
G02*
X30925000Y-122525000I0J250000D01*
G01*
X30925000Y-121775000D01*
G75*
G02*
X31175000Y-121525000I250000J0D01*
G01*
G37*
G36*
G01*
X31175000Y-118725000D02*
X32425000Y-118725000D01*
G75*
G02*
X32675000Y-118975000I0J-250000D01*
G01*
X32675000Y-119725000D01*
G75*
G02*
X32425000Y-119975000I-250000J0D01*
G01*
X31175000Y-119975000D01*
G75*
G02*
X30925000Y-119725000I0J250000D01*
G01*
X30925000Y-118975000D01*
G75*
G02*
X31175000Y-118725000I250000J0D01*
G01*
G37*
G36*
G01*
X47925000Y-125475000D02*
X46675000Y-125475000D01*
G75*
G02*
X46425000Y-125225000I0J250000D01*
G01*
X46425000Y-124475000D01*
G75*
G02*
X46675000Y-124225000I250000J0D01*
G01*
X47925000Y-124225000D01*
G75*
G02*
X48175000Y-124475000I0J-250000D01*
G01*
X48175000Y-125225000D01*
G75*
G02*
X47925000Y-125475000I-250000J0D01*
G01*
G37*
G36*
G01*
X47925000Y-128275000D02*
X46675000Y-128275000D01*
G75*
G02*
X46425000Y-128025000I0J250000D01*
G01*
X46425000Y-127275000D01*
G75*
G02*
X46675000Y-127025000I250000J0D01*
G01*
X47925000Y-127025000D01*
G75*
G02*
X48175000Y-127275000I0J-250000D01*
G01*
X48175000Y-128025000D01*
G75*
G02*
X47925000Y-128275000I-250000J0D01*
G01*
G37*
D19*
X38000000Y-75900000D03*
G36*
G01*
X38750000Y-79250000D02*
X37250000Y-79250000D01*
G75*
G02*
X37000000Y-79000000I0J250000D01*
G01*
X37000000Y-77800000D01*
G75*
G02*
X37250000Y-77550000I250000J0D01*
G01*
X38750000Y-77550000D01*
G75*
G02*
X39000000Y-77800000I0J-250000D01*
G01*
X39000000Y-79000000D01*
G75*
G02*
X38750000Y-79250000I-250000J0D01*
G01*
G37*
D22*
X34700000Y-121850000D03*
X39300000Y-121850000D03*
X37000000Y-121850000D03*
D23*
X37000000Y-115550000D03*
G36*
G01*
X96425000Y-126425000D02*
X95175000Y-126425000D01*
G75*
G02*
X94925000Y-126175000I0J250000D01*
G01*
X94925000Y-125425000D01*
G75*
G02*
X95175000Y-125175000I250000J0D01*
G01*
X96425000Y-125175000D01*
G75*
G02*
X96675000Y-125425000I0J-250000D01*
G01*
X96675000Y-126175000D01*
G75*
G02*
X96425000Y-126425000I-250000J0D01*
G01*
G37*
G36*
G01*
X96425000Y-129225000D02*
X95175000Y-129225000D01*
G75*
G02*
X94925000Y-128975000I0J250000D01*
G01*
X94925000Y-128225000D01*
G75*
G02*
X95175000Y-127975000I250000J0D01*
G01*
X96425000Y-127975000D01*
G75*
G02*
X96675000Y-128225000I0J-250000D01*
G01*
X96675000Y-128975000D01*
G75*
G02*
X96425000Y-129225000I-250000J0D01*
G01*
G37*
G36*
G01*
X93725000Y-126425000D02*
X92475000Y-126425000D01*
G75*
G02*
X92225000Y-126175000I0J250000D01*
G01*
X92225000Y-125425000D01*
G75*
G02*
X92475000Y-125175000I250000J0D01*
G01*
X93725000Y-125175000D01*
G75*
G02*
X93975000Y-125425000I0J-250000D01*
G01*
X93975000Y-126175000D01*
G75*
G02*
X93725000Y-126425000I-250000J0D01*
G01*
G37*
G36*
G01*
X93725000Y-129225000D02*
X92475000Y-129225000D01*
G75*
G02*
X92225000Y-128975000I0J250000D01*
G01*
X92225000Y-128225000D01*
G75*
G02*
X92475000Y-127975000I250000J0D01*
G01*
X93725000Y-127975000D01*
G75*
G02*
X93975000Y-128225000I0J-250000D01*
G01*
X93975000Y-128975000D01*
G75*
G02*
X93725000Y-129225000I-250000J0D01*
G01*
G37*
D19*
X38000000Y-67100000D03*
G36*
G01*
X38750000Y-70450000D02*
X37250000Y-70450000D01*
G75*
G02*
X37000000Y-70200000I0J250000D01*
G01*
X37000000Y-69000000D01*
G75*
G02*
X37250000Y-68750000I250000J0D01*
G01*
X38750000Y-68750000D01*
G75*
G02*
X39000000Y-69000000I0J-250000D01*
G01*
X39000000Y-70200000D01*
G75*
G02*
X38750000Y-70450000I-250000J0D01*
G01*
G37*
D16*
X43400000Y-116000000D03*
X43350000Y-121750000D03*
G36*
G01*
X31225000Y-127075000D02*
X32475000Y-127075000D01*
G75*
G02*
X32725000Y-127325000I0J-250000D01*
G01*
X32725000Y-128075000D01*
G75*
G02*
X32475000Y-128325000I-250000J0D01*
G01*
X31225000Y-128325000D01*
G75*
G02*
X30975000Y-128075000I0J250000D01*
G01*
X30975000Y-127325000D01*
G75*
G02*
X31225000Y-127075000I250000J0D01*
G01*
G37*
G36*
G01*
X31225000Y-124275000D02*
X32475000Y-124275000D01*
G75*
G02*
X32725000Y-124525000I0J-250000D01*
G01*
X32725000Y-125275000D01*
G75*
G02*
X32475000Y-125525000I-250000J0D01*
G01*
X31225000Y-125525000D01*
G75*
G02*
X30975000Y-125275000I0J250000D01*
G01*
X30975000Y-124525000D01*
G75*
G02*
X31225000Y-124275000I250000J0D01*
G01*
G37*
G36*
G01*
X41375000Y-127025000D02*
X42625000Y-127025000D01*
G75*
G02*
X42875000Y-127275000I0J-250000D01*
G01*
X42875000Y-128025000D01*
G75*
G02*
X42625000Y-128275000I-250000J0D01*
G01*
X41375000Y-128275000D01*
G75*
G02*
X41125000Y-128025000I0J250000D01*
G01*
X41125000Y-127275000D01*
G75*
G02*
X41375000Y-127025000I250000J0D01*
G01*
G37*
G36*
G01*
X41375000Y-124225000D02*
X42625000Y-124225000D01*
G75*
G02*
X42875000Y-124475000I0J-250000D01*
G01*
X42875000Y-125225000D01*
G75*
G02*
X42625000Y-125475000I-250000J0D01*
G01*
X41375000Y-125475000D01*
G75*
G02*
X41125000Y-125225000I0J250000D01*
G01*
X41125000Y-124475000D01*
G75*
G02*
X41375000Y-124225000I250000J0D01*
G01*
G37*
G36*
G01*
X36275000Y-127075000D02*
X37525000Y-127075000D01*
G75*
G02*
X37775000Y-127325000I0J-250000D01*
G01*
X37775000Y-128075000D01*
G75*
G02*
X37525000Y-128325000I-250000J0D01*
G01*
X36275000Y-128325000D01*
G75*
G02*
X36025000Y-128075000I0J250000D01*
G01*
X36025000Y-127325000D01*
G75*
G02*
X36275000Y-127075000I250000J0D01*
G01*
G37*
G36*
G01*
X36275000Y-124275000D02*
X37525000Y-124275000D01*
G75*
G02*
X37775000Y-124525000I0J-250000D01*
G01*
X37775000Y-125275000D01*
G75*
G02*
X37525000Y-125525000I-250000J0D01*
G01*
X36275000Y-125525000D01*
G75*
G02*
X36025000Y-125275000I0J250000D01*
G01*
X36025000Y-124525000D01*
G75*
G02*
X36275000Y-124275000I250000J0D01*
G01*
G37*
G36*
G01*
X45275000Y-125525000D02*
X44025000Y-125525000D01*
G75*
G02*
X43775000Y-125275000I0J250000D01*
G01*
X43775000Y-124525000D01*
G75*
G02*
X44025000Y-124275000I250000J0D01*
G01*
X45275000Y-124275000D01*
G75*
G02*
X45525000Y-124525000I0J-250000D01*
G01*
X45525000Y-125275000D01*
G75*
G02*
X45275000Y-125525000I-250000J0D01*
G01*
G37*
G36*
G01*
X45275000Y-128325000D02*
X44025000Y-128325000D01*
G75*
G02*
X43775000Y-128075000I0J250000D01*
G01*
X43775000Y-127325000D01*
G75*
G02*
X44025000Y-127075000I250000J0D01*
G01*
X45275000Y-127075000D01*
G75*
G02*
X45525000Y-127325000I0J-250000D01*
G01*
X45525000Y-128075000D01*
G75*
G02*
X45275000Y-128325000I-250000J0D01*
G01*
G37*
G36*
G01*
X69275000Y-67675000D02*
X70525000Y-67675000D01*
G75*
G02*
X70775000Y-67925000I0J-250000D01*
G01*
X70775000Y-68675000D01*
G75*
G02*
X70525000Y-68925000I-250000J0D01*
G01*
X69275000Y-68925000D01*
G75*
G02*
X69025000Y-68675000I0J250000D01*
G01*
X69025000Y-67925000D01*
G75*
G02*
X69275000Y-67675000I250000J0D01*
G01*
G37*
G36*
G01*
X69275000Y-64875000D02*
X70525000Y-64875000D01*
G75*
G02*
X70775000Y-65125000I0J-250000D01*
G01*
X70775000Y-65875000D01*
G75*
G02*
X70525000Y-66125000I-250000J0D01*
G01*
X69275000Y-66125000D01*
G75*
G02*
X69025000Y-65875000I0J250000D01*
G01*
X69025000Y-65125000D01*
G75*
G02*
X69275000Y-64875000I250000J0D01*
G01*
G37*
G36*
G01*
X51375000Y-67775000D02*
X52625000Y-67775000D01*
G75*
G02*
X52875000Y-68025000I0J-250000D01*
G01*
X52875000Y-68775000D01*
G75*
G02*
X52625000Y-69025000I-250000J0D01*
G01*
X51375000Y-69025000D01*
G75*
G02*
X51125000Y-68775000I0J250000D01*
G01*
X51125000Y-68025000D01*
G75*
G02*
X51375000Y-67775000I250000J0D01*
G01*
G37*
G36*
G01*
X51375000Y-64975000D02*
X52625000Y-64975000D01*
G75*
G02*
X52875000Y-65225000I0J-250000D01*
G01*
X52875000Y-65975000D01*
G75*
G02*
X52625000Y-66225000I-250000J0D01*
G01*
X51375000Y-66225000D01*
G75*
G02*
X51125000Y-65975000I0J250000D01*
G01*
X51125000Y-65225000D01*
G75*
G02*
X51375000Y-64975000I250000J0D01*
G01*
G37*
D31*
X32100000Y-52350000D03*
X32130000Y-136600000D03*
X112150000Y-136610000D03*
X109400000Y-52350000D03*
M02*
