M48
; DRILL file {KiCad (5.1.9)-1} date 06/08/21 10:33:43
; FORMAT={-:-/ absolute / metric / decimal}
; #@! TF.CreationDate,2021-06-08T10:33:43+02:00
; #@! TF.GenerationSoftware,Kicad,Pcbnew,(5.1.9)-1
; #@! TF.FileFunction,Plated,1,4,PTH
FMAT,2
METRIC
T1C0.200
T2C0.250
T3C0.300
T4C0.400
T5C0.600
T6C1.000
T7C3.200
%
G90
G05
T1
X52.045Y-82.3
X52.045Y-83.6
X52.045Y-84.9
X53.955Y-82.3
X53.955Y-83.6
X53.955Y-84.9
T3
X33.15Y-123.5
X51.45Y-74.3
X54.5Y-73.65
X57.1Y-85.2
X59.735Y-83.265
X61.6Y-76.0
X61.837Y-83.857
X62.0Y-107.0
X62.475Y-78.975
X62.475Y-83.0
X65.079Y-105.421
X66.125Y-104.883
X70.1Y-92.15
X72.25Y-87.7
X72.471Y-97.119
X73.3Y-116.8
X73.4Y-93.6
X73.55Y-87.8
X73.641Y-91.234
X74.2Y-96.55
X74.35Y-91.325
X74.6Y-96.0
X78.45Y-100.1
X81.7Y-100.1
X83.25Y-114.5
X83.3Y-104.3
X83.3Y-105.5
X83.3Y-107.0
X83.3Y-108.5
X83.3Y-110.0
X83.371Y-116.821
X84.582Y-103.853
X84.65Y-118.0
X84.7Y-116.9
X85.3Y-103.795
X85.4Y-123.1
X85.65Y-116.9
X86.3Y-123.1
X86.4Y-99.6
X86.45Y-91.35
X86.55Y-84.4
X86.8Y-112.95
X86.9Y-130.6
X87.0Y-111.6
X87.086Y-121.701
X88.1Y-121.8
X88.4Y-99.6
X89.2Y-87.6
X89.2Y-94.9
X89.7Y-99.6
X90.2Y-121.2
X91.024Y-99.6
X91.8Y-85.2
X92.4Y-104.4
X92.7Y-121.2
X93.4Y-92.7
X93.7Y-123.25
X94.75Y-121.25
X95.45Y-104.35
X96.6Y-99.6
X97.0Y-122.725
X97.1Y-104.3
X98.5Y-104.4
X98.5Y-122.2
X98.5Y-123.1
X99.95Y-104.35
X100.8Y-121.0
X100.95Y-122.2
X101.5Y-105.6
X104.7Y-123.5
X105.0Y-132.2
X112.7Y-83.2
X113.1Y-80.9
T4
X30.48Y-58.42
X31.7Y-91.4
X32.7Y-91.4
X33.02Y-106.68
X33.02Y-111.76
X33.02Y-132.08
X33.15Y-123.5
X34.0Y-130.0
X34.5Y-83.5
X34.6Y-86.6
X35.6Y-130.0
X35.8Y-86.6
X36.25Y-54.5
X36.9Y-128.9
X36.9Y-130.0
X37.0Y-86.6
X37.4Y-99.0
X37.75Y-59.0
X38.0Y-106.75
X38.1Y-48.26
X38.1Y-111.76
X38.1Y-132.08
X38.1Y-137.16
X38.2Y-86.6
X38.4Y-99.0
X39.4Y-86.6
X39.4Y-99.0
X39.45Y-129.5
X40.4Y-99.0
X40.7Y-123.45
X41.5Y-119.65
X42.75Y-60.25
X43.0Y-54.5
X43.18Y-111.76
X43.18Y-132.08
X43.18Y-137.16
X43.25Y-106.75
X44.0Y-88.0
X45.0Y-87.0
X46.0Y-88.0
X46.0Y-103.6
X47.0Y-87.0
X47.2Y-103.6
X48.0Y-86.0
X48.0Y-88.0
X48.25Y-95.75
X48.26Y-91.44
X48.26Y-106.68
X48.26Y-111.76
X48.26Y-132.08
X48.26Y-137.16
X48.4Y-103.6
X48.75Y-72.85
X49.0Y-87.0
X49.6Y-103.6
X50.8Y-103.6
X53.25Y-88.0
X53.3Y-95.8
X53.34Y-91.44
X53.34Y-101.6
X53.34Y-106.68
X53.34Y-111.76
X53.34Y-137.16
X55.05Y-69.0
X55.55Y-79.3
X56.5Y-87.2
X57.4Y-87.2
X58.25Y-68.0
X58.3Y-87.2
X58.42Y-111.76
X58.42Y-132.08
X58.42Y-137.16
X58.5Y-94.4
X59.85Y-79.3
X63.5Y-111.76
X63.5Y-132.08
X63.5Y-137.16
X64.8Y-115.6
X65.8Y-115.6
X66.8Y-115.6
X68.58Y-111.76
X68.58Y-116.84
X68.58Y-132.08
X68.58Y-137.16
X68.75Y-101.0
X69.75Y-96.0
X69.926Y-81.7
X73.66Y-66.04
X73.66Y-73.66
X73.66Y-121.92
X73.66Y-127.0
X73.66Y-132.08
X73.66Y-137.16
X75.75Y-101.0
X76.0Y-91.8
X77.2Y-95.1
X77.2Y-96.1
X77.2Y-97.1
X77.25Y-84.0
X78.74Y-127.0
X78.74Y-132.08
X78.74Y-137.16
X79.25Y-102.75
X80.8Y-134.0
X83.82Y-132.08
X83.82Y-137.16
X84.4Y-87.1
X84.4Y-87.1
X84.4Y-107.8
X86.25Y-66.75
X86.5Y-90.2
X86.6Y-81.6
X87.3Y-131.75
X87.6Y-96.1
X88.0Y-105.0
X88.0Y-106.9
X88.1Y-114.0
X88.1Y-116.0
X88.9Y-68.58
X90.9Y-125.8
X91.0Y-105.0
X91.44Y-137.16
X92.1Y-111.0
X92.6Y-96.6
X93.2Y-86.2
X93.98Y-73.66
X94.0Y-105.0
X94.0Y-114.0
X94.0Y-116.0
X98.5Y-114.0
X98.5Y-116.0
X100.0Y-109.5
X101.5Y-68.5
X101.6Y-53.34
X101.6Y-58.42
X101.6Y-88.9
X101.75Y-49.0
X103.0Y-98.54
X103.0Y-99.55
X103.0Y-100.55
X103.1Y-127.0
X105.0Y-55.75
X105.25Y-49.0
X106.68Y-58.42
X106.68Y-63.5
X106.68Y-68.58
X106.68Y-73.66
X106.68Y-91.44
X106.75Y-94.5
X108.3Y-80.8
X108.3Y-84.0
X111.76Y-73.66
X114.75Y-73.5
X114.75Y-91.25
X114.75Y-94.5
T6
X38.0Y-67.1
X38.0Y-69.6
X38.0Y-75.9
X38.0Y-78.4
X38.2Y-84.2
X39.6Y-61.4
X43.35Y-121.75
X43.4Y-116.0
X47.0Y-60.15
X47.0Y-62.69
X49.54Y-60.15
X49.54Y-62.69
X52.08Y-60.15
X52.08Y-62.69
X54.62Y-60.15
X54.62Y-62.69
X57.16Y-60.15
X57.16Y-62.69
X59.7Y-60.15
X59.7Y-62.69
X62.24Y-60.15
X62.24Y-62.69
X64.78Y-60.15
X64.78Y-62.69
X67.32Y-60.15
X67.32Y-62.69
X68.2Y-121.7
X69.86Y-60.15
X69.86Y-62.69
X72.4Y-60.15
X72.4Y-62.69
X74.94Y-60.15
X74.94Y-62.69
X77.48Y-60.15
X77.48Y-62.69
X80.02Y-60.15
X80.02Y-62.69
X82.56Y-60.15
X82.56Y-62.69
X85.1Y-60.15
X85.1Y-62.69
X87.64Y-60.15
X87.64Y-62.69
X90.18Y-60.15
X90.18Y-62.69
X92.72Y-60.15
X92.72Y-62.69
X95.26Y-60.15
X95.26Y-62.69
X101.8Y-63.0
X101.8Y-65.5
X111.5Y-91.3
T7
X32.1Y-52.35
X32.13Y-136.6
X109.4Y-52.35
X112.15Y-136.61
T2
G00X94.982Y-108.862
M15
G01X94.982Y-108.862
M16
G05
G00X94.982Y-110.335
M15
G01X94.982Y-110.335
M16
G05
G00X95.693Y-108.1
M15
G01X95.693Y-108.1
M16
G05
G00X95.693Y-109.573
M15
G01X95.693Y-109.573
M16
G05
G00X95.693Y-111.097
M15
G01X95.693Y-111.097
M16
G05
G00X96.455Y-108.862
M15
G01X96.455Y-108.862
M16
G05
G00X96.506Y-110.386
M15
G01X96.506Y-110.386
M16
G05
G00X97.166Y-108.1
M15
G01X97.166Y-108.1
M16
G05
G00X97.166Y-109.624
M15
G01X97.166Y-109.624
M16
G05
G00X97.166Y-111.097
M15
G01X97.166Y-111.097
M16
G05
G00X97.979Y-108.862
M15
G01X97.979Y-108.862
M16
G05
G00X97.979Y-110.386
M15
G01X97.979Y-110.386
M16
G05
T5
G00X112.42Y-77.78
M15
G01X111.32Y-77.78
M16
G05
G00X112.42Y-86.42
M15
G01X111.32Y-86.42
M16
G05
G00X116.44Y-77.78
M15
G01X115.64Y-77.78
M16
G05
G00X116.44Y-86.42
M15
G01X115.64Y-86.42
M16
G05
T0
M30
